<?xml version="1.0" encoding="utf-8"?>
<!-- Generator: Adobe Illustrator 21.0.0, SVG Export Plug-In . SVG Version: 6.00 Build 0)  -->
<svg version="1.1" id="Layer_1" xmlns="http://www.w3.org/2000/svg" xmlns:xlink="http://www.w3.org/1999/xlink" x="0px" y="0px"
	 viewBox="0 0 512 512" style="enable-background:new 0 0 512 512;" xml:space="preserve">
<style type="text/css">
	.st0{fill:#ECEFF1;}
	.st1{fill:#263238;}
	.st2{fill:#212121;}
	.st3{fill:#FFC107;}
	.st4{fill:#634703;}
	.st5{fill:#455A64;}
</style>
<g>
	<polygon class="st0" points="194.8,145 196.2,177.5 173.6,219.8 138.4,288.9 131.3,346.7 156.7,428.5 214.5,460.9 301.9,460.9 
		383.7,398.9 420.4,301.6 335.8,198.6 311.8,140.8 	"/>
	<path class="st1" d="M395,225.4c-22.6-32.4-40.9-52.2-50.8-93.1c-9.9-40.9,2.8-29.6-5.6-64.9c-4.2-18.3-11.3-31-18.3-40.9
		c-8.5-9.9-18.3-15.5-24-16.9c-12.7-7.1-42.3-18.3-79,1.4c-38.1,19.7-33.8,62-26.8,148.1c0,5.6-1.4,12.7-4.2,18.3
		c-5.6,12.7-15.5,24-24,33.8c-9.9,14.1-19.7,28.2-26.8,43.7c-16.9,32.4-32.4,73.3-28.2,88.8c7.1-1.4,95.9,134,95.9,136.8
		c5.6-1.4,29.6-1.4,50.8-1.4c29.6-1.4,46.5-2.8,70.5,2.8c0-4.2-1.4-8.5-1.4-12.7c0-8.5,1.4-15.5,2.8-25.4c1.4-7.1,2.8-14.1,4.2-22.6
		c-14.1,12.7-39.5,26.8-63.5,31c-21.2,4.2-56.4-2.8-73.3-24c1.4,0,4.2,0,5.6-1.4c4.2-1.4,8.5-2.8,9.9-5.6c4.2-7.1,1.4-14.1-1.4-18.3
		c-2.8-4.2-24-19.7-33.8-28.2c-9.9-8.5-15.5-12.7-21.2-18.3c0,0-8.5-8.5-11.3-11.3c-2.8-2.8-4.2-5.6-5.6-7.1
		c-2.8-7.1-4.2-15.5-2.8-26.8c1.4-15.5,7.1-28.2,14.1-42.3c2.8-5.6,9.9-16.9,9.9-16.9s-24,59.2-11.3,77.6c0,0,1.4-18.3,7.1-36.7
		c4.2-12.7,11.3-31,19.7-40.9c8.5-9.9,29.6-46.5,31-69.1c0-9.9,1.4-19.7,1.4-26.8c-5.6-5.6,93.1-19.7,98.7-4.2
		c1.4,5.6,21.2,56.4,32.4,83.2c5.6,12.7,12.7,24,16.9,38.1c4.2,15.5,7.1,36.7,7.1,57.8c0,4.2,0,11.3-1.4,18.3
		c2.8,0,57.8-59.2-7.1-108.6c0,0,39.5,18.3,40.9,55c1.4,29.6-11.3,53.6-14.1,57.8c1.4,0,29.6,12.7,31,12.7c5.6,0,16.9-4.2,16.9-4.2
		c1.4-4.2,5.6-15.5,5.6-19.7C441.5,310,417.6,257.8,395,225.4z"/>
	<ellipse class="st0" cx="215.9" cy="104.1" rx="18.3" ry="28.2"/>
	<ellipse class="st0" cx="279.4" cy="102.7" rx="24" ry="32.4"/>
	
		<ellipse transform="matrix(0.9921 -0.1252 0.1252 0.9921 -11.7352 27.9423)" class="st2" cx="216.4" cy="107.3" rx="9.9" ry="16.9"/>
	<ellipse class="st2" cx="278" cy="108.4" rx="14.1" ry="18.3"/>
	<path class="st3" d="M465.5,418.6c-5.6-2.8-15.5-7.1-24-19.7c-4.2-7.1-2.8-26.8-9.9-35.3c-4.2-5.6-9.9-2.8-11.3-2.8
		c-12.7,2.8-42.3,22.6-62,0c-2.8-2.8-7.1-7.1-14.1-7.1c-7.1,0-9.9,2.8-12.7,8.5c-2.8,5.6-2.8,9.9-2.8,24c0,11.3,0,24-1.4,33.8
		c-2.8,24-7.1,38.1-7.1,52.2c0,15.5,4.2,25.4,9.9,29.6c4.2,4.2,11.3,7.1,26.8,7.1s25.4-5.6,35.3-15.5c7.1-7.1,12.7-9.9,32.4-24
		c15.5-9.9,39.5-22.6,43.7-26.8c2.8-2.8,7.1-4.2,7.1-12.7C475.4,422.8,469.7,420,465.5,418.6z"/>
	<path class="st3" d="M182.1,422.8c-14.1-22.6-15.5-26.8-25.4-40.9c-8.5-14.1-26.8-40.9-38.1-40.9c-8.5,0-12.7,4.2-18.3,9.9
		c-5.6,5.6-11.3,18.3-21.2,25.4c-8.5,7.1-32.4,5.6-38.1,14.1c-5.6,8.5,5.6,21.2,5.6,42.3c0,8.5-7.1,14.1-8.5,19.7
		c-1.4,7.1-2.8,11.3,0,16.9c5.6,8.5,12.7,11.3,60.6,21.2c25.4,5.6,49.4,19.7,64.9,21.2c15.5,1.4,42.3,0,42.3-38.1
		C207.5,451,194.8,445.4,182.1,422.8z"/>
	<path class="st3" d="M208.9,167.6c-8.5-5.6-15.5-11.3-15.5-19.7s5.6-11.3,14.1-18.3c1.4-1.4,16.9-15.5,32.4-15.5
		c15.5,0,33.8,9.9,40.9,12.7c12.7,2.8,25.4,5.6,24,15.5c-1.4,14.1-2.8,16.9-16.9,24c-9.9,2.8-28.2,18.3-40.9,18.3
		c-5.6,0-14.1,0-19.7-1.4C223,181.7,215.9,174.6,208.9,167.6z"/>
	<path class="st4" d="M206,156.3c2.8,2.8,7.1,5.6,11.3,7.1c2.8,1.4,7.1,2.8,7.1,2.8c5.6,0,9.9,0,12.7,0c7.1,0,16.9-2.8,26.8-8.5
		c9.9-4.2,11.3-7.1,18.3-9.9c7.1-4.2,14.1-8.5,11.3-9.9c-2.8-1.4-5.6,0-15.5,5.6c-8.5,5.6-15.5,8.5-24,12.7
		c-4.2,1.4-9.9,4.2-14.1,4.2c-4.2,0-8.5,0-12.7,0c-4.2,0-7.1-1.4-11.3-2.8c-2.8-1.4-4.2-2.8-5.6-2.8c-2.8-1.4-8.5-7.1-11.3-8.5
		c0,0-2.8,0-1.4,1.4C201.8,152.1,203.2,153.5,206,156.3z"/>
	<path class="st4" d="M248.4,125.3c1.4,2.8,4.2,2.8,5.6,4.2c1.4,1.4,2.8,1.4,2.8,1.4c1.4-1.4,0-4.2-1.4-4.2
		C255.4,123.9,248.4,123.9,248.4,125.3z"/>
	<path class="st4" d="M225.8,128.1c0,1.4,2.8,2.8,2.8,1.4c1.4-1.4,2.8-2.8,4.2-2.8c2.8-1.4,1.4-2.8-2.8-2.8
		C227.2,125.3,227.2,126.7,225.8,128.1z"/>
	<path class="st5" d="M362.6,377.7c0,1.4,0,2.8,0,4.2c2.8,5.6,9.9,7.1,15.5,7.1c8.5,0,16.9-5.6,21.2-11.3c0-1.4,1.4-2.8,2.8-4.2
		c2.8-4.2,4.2-7.1,5.6-8.5c0,0-1.4-1.4-1.4-2.8c-1.4-2.8-5.6-5.6-11.3-7.1c-4.2-1.4-11.3-2.8-14.1-2.8c-12.7-1.4-19.7,2.8-24,7.1
		c0,0,1.4,0,1.4,1.4c2.8,2.8,4.2,5.6,4.2,9.9C364,373.5,362.6,374.9,362.6,377.7z"/>
</g>
</svg>
