<?xml version="1.0" standalone="no"?>
<!DOCTYPE svg PUBLIC "-//W3C//DTD SVG 20010904//EN"
 "http://www.w3.org/TR/2001/REC-SVG-20010904/DTD/svg10.dtd">
<svg version="1.0" xmlns="http://www.w3.org/2000/svg"
 width="215.000000pt" height="205.000000pt" viewBox="0 0 215.000000 205.000000"
 preserveAspectRatio="xMidYMid meet">

<g transform="translate(0.000000,205.000000) scale(0.100000,-0.100000)"
fill="#000000" stroke="none">
<path d="M217 1964 c-4 -4 -7 -18 -7 -31 0 -19 -5 -23 -30 -23 -28 0 -30 -3
-30 -35 0 -32 2 -35 30 -35 27 0 30 -3 30 -30 0 -28 3 -30 35 -30 32 0 35 2
35 30 0 27 3 30 30 30 28 0 30 3 30 35 0 32 -2 35 -29 35 -25 0 -30 4 -33 28
-2 20 -9 28 -28 30 -14 2 -29 0 -33 -4z m53 -89 c0 -20 -5 -25 -25 -25 -20 0
-25 5 -25 25 0 20 5 25 25 25 20 0 25 -5 25 -25z"/>
<path d="M853 1941 c-241 -69 -426 -262 -479 -498 -25 -111 -15 -288 21 -403
36 -114 98 -236 161 -319 61 -80 70 -122 37 -165 -29 -37 -36 -61 -29 -101 8
-42 47 -84 86 -91 26 -6 30 -11 30 -40 0 -25 9 -44 34 -72 l34 -37 266 -3
c233 -3 270 -1 301 14 40 19 65 58 65 104 0 20 5 30 15 30 30 0 75 31 91 62
21 41 13 102 -17 134 -37 39 -27 82 37 167 73 97 140 236 170 353 29 118 33
300 8 397 -59 227 -248 410 -489 472 -82 21 -261 19 -342 -4z m147 -111 l0
-70 -35 0 c-46 0 -102 -49 -111 -96 -12 -67 36 -132 105 -141 l41 -6 0 -153 0
-154 -93 0 c-59 0 -97 -4 -105 -12 -7 -7 -12 -31 -12 -54 0 -34 -5 -47 -26
-63 -33 -26 -45 -26 -78 0 -21 16 -26 29 -26 63 0 23 -5 47 -12 54 -8 8 -48
12 -114 12 l-102 0 -6 34 c-14 75 13 212 62 316 49 105 167 223 272 273 62 30
176 63 228 66 8 1 12 -19 12 -69z m193 44 c190 -46 359 -204 417 -392 22 -70
36 -206 26 -246 -6 -25 -9 -26 -85 -26 -79 0 -79 0 -86 29 -13 59 -85 98 -149
80 -37 -10 -73 -47 -82 -86 -6 -22 -10 -23 -90 -23 l-84 0 0 184 c0 206 4 196
-76 196 -38 0 -46 4 -56 25 -8 19 -8 31 0 50 10 21 18 25 56 25 75 0 76 1 76
104 0 51 3 95 6 99 7 7 42 2 127 -19z m191 -630 c9 -8 16 -27 16 -40 0 -58 12
-64 120 -64 65 0 100 -4 100 -11 0 -23 -52 -164 -86 -232 -20 -40 -60 -104
-90 -143 -36 -48 -55 -83 -60 -112 l-7 -42 -158 0 -159 0 0 95 c0 89 1 95 20
95 92 0 156 100 116 179 -21 40 -42 54 -89 60 l-42 6 -3 53 -3 52 108 0 c120
0 133 5 133 56 0 36 22 64 50 64 10 0 26 -7 34 -16z m-784 -151 c26 -82 114
-117 191 -78 34 18 69 69 69 103 0 21 4 22 70 22 l69 0 3 -82 3 -83 51 -5 c58
-6 84 -23 84 -54 0 -39 -17 -50 -77 -56 l-58 -5 -3 -127 -3 -128 -159 0 -160
0 0 34 c0 18 -10 46 -22 64 -127 173 -179 276 -212 415 l-6 27 72 0 73 0 15
-47z m818 -575 c20 -20 14 -65 -10 -82 -18 -13 -77 -15 -377 -16 -387 0 -401
1 -401 55 0 55 -1 55 404 55 276 0 375 -3 384 -12z m-98 -176 c0 -10 -7 -28
-16 -40 -15 -22 -18 -22 -274 -22 -256 0 -259 0 -274 22 -9 12 -16 30 -16 40
0 17 19 18 290 18 271 0 290 -1 290 -18z"/>
<path d="M691 1606 c-6 -7 -17 -31 -24 -52 -13 -37 -16 -39 -65 -44 -28 -3
-57 -11 -63 -17 -17 -17 -3 -45 37 -72 33 -23 35 -27 28 -60 -21 -102 -1 -123
68 -72 l41 30 36 -29 c62 -52 101 -30 75 43 -20 56 -19 61 26 92 22 15 40 36
40 46 0 25 -35 42 -81 37 l-39 -4 -15 52 c-8 29 -22 55 -31 58 -21 8 -20 8
-33 -8z m45 -166 c12 0 12 -4 4 -20 -6 -11 -9 -24 -6 -28 2 -4 -8 -7 -23 -7
-21 0 -27 4 -24 16 3 9 -1 20 -7 24 -8 5 -4 11 12 19 12 7 25 8 26 4 2 -4 10
-8 18 -8z"/>
<path d="M1164 1689 c-30 -15 -54 -61 -54 -103 0 -30 11 -48 76 -120 42 -47
83 -87 91 -90 19 -8 156 123 179 172 13 29 14 41 5 73 -17 56 -55 82 -111 75
-54 -7 -63 -7 -120 -1 -25 2 -54 0 -66 -6z m81 -69 c23 -26 49 -25 86 2 l29
22 22 -21 c26 -27 21 -41 -45 -113 l-48 -53 -55 54 c-58 57 -71 98 -36 118 24
14 26 14 47 -9z"/>
<path d="M1350 1050 l0 -40 -45 0 c-45 0 -45 0 -45 -35 0 -35 0 -35 45 -35 31
0 45 -4 44 -12 -1 -7 -1 -28 0 -45 1 -30 4 -33 31 -33 29 0 30 2 30 45 l0 45
45 0 c45 0 45 0 45 35 0 35 0 35 -45 35 l-45 0 0 40 c0 38 -2 40 -30 40 -28 0
-30 -2 -30 -40z"/>
<path d="M684 940 c-32 -13 -64 -59 -64 -92 0 -57 41 -108 87 -108 10 0 39
-20 63 -45 58 -59 84 -58 88 3 2 25 8 42 16 42 21 0 65 54 72 86 8 40 -17 89
-56 109 -32 16 -169 20 -206 5z m190 -82 c15 -24 -3 -52 -35 -56 -13 -2 -31
-10 -40 -18 -14 -13 -18 -13 -29 1 -7 8 -22 15 -34 15 -28 0 -46 18 -46 46 0
30 12 33 99 31 58 -2 76 -6 85 -19z"/>
<path d="M1780 1936 c0 -19 -6 -25 -27 -28 -23 -2 -29 -8 -31 -35 -3 -31 -1
-33 27 -33 28 0 31 -3 31 -30 0 -28 3 -30 35 -30 32 0 35 2 35 30 0 27 3 30
31 30 28 0 30 2 27 33 -2 27 -8 33 -30 35 -22 3 -28 9 -28 28 0 21 -5 24 -35
24 -30 0 -35 -3 -35 -24z m60 -61 c0 -20 -5 -25 -25 -25 -20 0 -25 5 -25 25 0
20 5 25 25 25 20 0 25 -5 25 -25z"/>
</g>
</svg>
