<svg id="svg" version="1.1" xmlns="http://www.w3.org/2000/svg" xmlns:xlink="http://www.w3.org/1999/xlink" width="400" height="350.2040816326531" viewBox="0, 0, 400,350.2040816326531"><g id="svgg"><path id="path0" d="M25.526 0.510 C 25.444 0.592,22.307 0.742,18.555 0.842 C 9.939 1.071,8.471 1.346,6.106 3.170 C 4.073 4.739,1.838 7.416,1.527 8.654 C 1.416 9.096,1.224 9.457,1.100 9.457 C 0.849 9.457,0.849 9.462,0.572 16.287 C 0.463 18.984,0.278 22.018,0.162 23.030 L -0.050 24.869 6.455 24.869 L 12.960 24.869 12.960 18.914 L 12.960 12.960 199.796 12.960 C 302.556 12.960,386.882 12.864,387.187 12.747 C 387.691 12.554,387.741 22.598,387.741 125.094 L 387.741 237.653 306.662 237.564 L 225.583 237.475 225.388 238.265 C 225.281 238.699,225.239 241.497,225.294 244.483 L 225.394 249.912 306.567 250.001 L 387.741 250.089 387.741 262.698 L 387.741 275.306 306.480 275.306 L 225.219 275.306 225.219 281.220 L 225.219 287.133 228.284 287.406 C 229.969 287.557,234.532 287.694,238.424 287.710 C 246.157 287.744,246.239 287.765,246.344 289.792 C 246.380 290.492,246.502 291.066,246.614 291.067 C 246.726 291.068,247.332 292.763,247.961 294.834 C 248.590 296.905,249.401 299.526,249.764 300.659 C 250.126 301.791,250.346 302.842,250.253 302.993 C 250.160 303.144,250.216 303.321,250.378 303.385 C 250.540 303.450,251.006 304.685,251.413 306.130 C 251.820 307.574,252.558 310.095,253.052 311.732 C 253.546 313.368,253.874 314.905,253.781 315.147 C 253.688 315.389,253.746 315.587,253.911 315.587 C 254.075 315.587,254.290 315.863,254.388 316.200 C 254.487 316.537,255.150 318.783,255.861 321.191 C 256.573 323.599,257.196 325.727,257.246 325.919 C 257.296 326.112,257.436 326.506,257.556 326.795 C 257.832 327.459,259.909 334.844,260.020 335.558 C 260.066 335.850,260.217 336.273,260.355 336.497 C 260.905 337.387,259.100 337.473,242.662 337.349 L 225.603 337.220 225.398 338.050 C 225.286 338.506,225.239 341.322,225.294 344.308 L 225.394 349.737 256.305 349.827 L 287.215 349.916 287.215 343.960 C 287.215 339.431,287.110 338.002,286.778 337.998 C 286.432 337.994,286.433 337.934,286.783 337.711 C 287.027 337.557,284.269 337.429,280.653 337.428 C 277.038 337.427,273.825 337.387,273.512 337.340 C 273.113 337.279,272.664 336.244,272.004 333.863 C 270.859 329.734,270.905 329.892,270.657 329.247 C 270.042 327.642,269.678 326.068,269.855 325.781 C 269.966 325.601,269.929 325.401,269.774 325.336 C 269.390 325.177,266.459 315.949,266.065 313.660 C 266.032 313.468,265.907 313.152,265.787 312.960 C 265.668 312.767,265.163 311.191,264.667 309.457 C 263.762 306.300,261.628 298.998,260.265 294.396 C 259.866 293.047,259.614 291.747,259.706 291.506 C 259.798 291.265,259.753 291.068,259.606 291.068 C 259.459 291.068,259.175 290.452,258.973 289.698 L 258.608 288.329 260.215 288.055 C 262.402 287.682,275.656 287.565,329.422 287.444 C 384.756 287.320,391.165 287.162,392.759 285.882 C 397.102 282.397,398.401 280.577,399.223 276.822 C 400.124 272.706,399.951 9.798,399.046 8.406 C 395.603 3.110,392.134 1.209,385.289 0.865 C 381.123 0.656,25.731 0.305,25.526 0.510 M0.584 37.712 C 0.455 37.840,0.350 108.138,0.350 193.929 L 0.350 349.912 106.655 349.912 L 212.960 349.912 212.960 193.908 C 212.960 51.975,212.910 37.884,212.406 37.691 C 211.646 37.399,0.875 37.420,0.584 37.712 M275.394 37.710 C 275.050 37.849,274.956 43.147,274.956 62.551 L 274.956 87.215 281.086 87.215 L 287.215 87.215 287.215 62.347 L 287.215 37.478 281.524 37.506 C 278.393 37.521,275.635 37.613,275.394 37.710 M300.388 38.032 C 300.271 38.337,300.175 49.528,300.175 62.901 L 300.175 87.215 306.480 87.215 L 312.785 87.215 312.785 62.559 C 312.785 40.399,312.728 37.882,312.231 37.691 C 310.865 37.167,300.606 37.462,300.388 38.032 M236.953 38.222 C 231.496 38.790,226.188 43.803,225.716 48.835 C 225.336 52.890,225.471 74.044,225.894 76.495 C 226.089 77.630,226.166 78.694,226.064 78.859 C 225.962 79.024,226.045 79.159,226.249 79.159 C 226.453 79.159,226.620 79.374,226.620 79.635 C 226.620 80.887,232.546 86.515,233.864 86.515 C 234.118 86.515,234.326 86.633,234.326 86.778 C 234.325 87.067,249.950 87.023,252.666 86.725 C 256.580 86.297,261.424 80.964,261.871 76.593 C 261.972 75.596,262.132 74.545,262.224 74.256 C 262.437 73.594,262.426 51.784,262.213 51.110 C 262.126 50.837,261.970 49.776,261.865 48.753 C 261.413 44.344,256.983 39.404,252.700 38.532 C 250.660 38.116,239.987 37.907,236.953 38.222 M335.552 38.222 C 335.552 38.343,335.052 38.541,334.442 38.663 C 332.905 38.971,329.832 41.422,327.609 44.114 L 325.744 46.371 325.744 49.610 C 325.744 51.391,325.614 52.929,325.454 53.028 C 325.176 53.200,325.265 73.769,325.548 74.686 C 325.623 74.931,325.774 75.879,325.883 76.793 C 326.257 79.933,328.278 82.776,332.197 85.674 C 334.775 87.581,352.734 87.554,355.546 85.639 C 358.874 83.373,360.486 81.224,361.718 77.408 C 362.549 74.834,362.571 49.343,361.744 47.747 C 361.662 47.590,361.377 46.751,361.111 45.884 C 360.237 43.038,355.994 39.341,352.664 38.525 C 351.039 38.127,335.552 37.853,335.552 38.222 M200.271 56.480 L 200.175 62.872 106.830 62.962 C 55.490 63.011,13.327 62.992,13.135 62.919 C 12.914 62.836,12.823 60.445,12.887 56.437 L 12.990 50.088 106.678 50.088 L 200.366 50.088 200.271 56.480 M250.355 62.532 L 250.263 74.977 243.870 75.054 L 237.478 75.131 237.478 62.609 L 237.478 50.088 243.962 50.088 L 250.447 50.088 250.355 62.532 M350.263 62.609 L 350.263 75.131 343.871 75.054 L 337.478 74.977 337.386 62.972 C 337.335 56.370,337.370 50.770,337.462 50.528 C 337.589 50.197,339.201 50.088,343.947 50.088 L 350.263 50.088 350.263 62.609 M200.350 206.217 L 200.350 337.478 106.655 337.389 L 12.960 337.300 12.960 206.682 C 12.960 134.842,12.864 75.815,12.747 75.510 C 12.554 75.006,20.955 74.956,106.442 74.956 L 200.350 74.956 200.350 206.217 M261.647 100.613 C 261.647 100.757,261.167 100.876,260.581 100.876 C 257.606 100.876,251.138 106.754,251.138 109.459 C 251.138 109.875,251.054 110.301,250.950 110.404 C 250.617 110.737,250.455 116.222,250.482 126.270 C 250.515 138.346,250.546 139.405,250.876 139.405 C 251.020 139.405,251.142 139.759,251.146 140.193 C 251.169 142.494,255.388 147.621,258.056 148.589 C 258.682 148.816,259.194 149.114,259.194 149.250 C 259.194 149.900,278.254 149.403,279.510 148.720 C 283.162 146.734,285.994 143.317,286.580 140.189 C 286.787 139.083,287.017 137.962,287.092 137.697 C 287.305 136.937,287.273 112.725,287.058 112.510 C 286.952 112.404,286.865 111.941,286.865 111.480 C 286.865 107.174,281.467 101.326,277.145 100.949 C 276.134 100.861,275.307 100.690,275.307 100.570 C 275.307 100.449,272.233 100.350,268.477 100.350 C 264.721 100.350,261.647 100.468,261.647 100.613 M335.903 100.613 C 335.902 100.757,335.650 100.876,335.342 100.876 C 333.698 100.876,329.316 104.258,326.959 107.346 C 325.868 108.776,325.782 109.091,325.604 112.317 C 325.272 118.325,325.207 136.951,325.517 136.952 C 325.681 136.952,325.758 137.662,325.689 138.529 C 325.621 139.396,325.646 140.105,325.747 140.105 C 325.848 140.105,326.213 140.902,326.559 141.875 C 327.310 143.990,330.580 147.369,333.057 148.590 C 335.517 149.801,352.324 149.918,354.555 148.739 C 356.813 147.546,360.600 143.663,361.097 142.032 C 361.332 141.261,361.605 140.394,361.705 140.105 C 362.569 137.587,362.580 113.004,361.718 110.333 C 360.655 107.039,360.251 106.388,357.944 104.253 C 355.135 101.652,353.699 100.876,351.698 100.876 C 350.909 100.876,350.263 100.757,350.263 100.613 C 350.263 100.468,347.032 100.350,343.084 100.350 C 339.135 100.350,335.904 100.468,335.903 100.613 M37.908 106.567 L 38.004 112.609 62.500 112.699 C 81.865 112.771,87.055 112.697,87.275 112.349 C 87.429 112.107,87.557 109.348,87.560 106.217 L 87.566 100.525 62.689 100.525 L 37.812 100.525 37.908 106.567 M225.304 125.131 L 225.394 149.737 231.436 149.833 L 237.478 149.929 237.478 125.227 L 237.478 100.525 231.346 100.525 L 225.214 100.525 225.304 125.131 M300.260 125.131 L 300.350 149.737 306.567 149.833 L 312.785 149.929 312.785 125.227 L 312.785 100.525 306.477 100.525 L 300.170 100.525 300.260 125.131 M274.956 125.059 L 274.956 137.303 269.206 137.303 C 266.043 137.303,263.206 137.399,262.901 137.516 C 262.380 137.715,261.977 113.274,262.492 112.755 C 262.572 112.675,265.409 112.656,268.797 112.713 L 274.956 112.816 274.956 125.059 M350.263 125.044 L 350.263 137.478 343.783 137.478 L 337.303 137.478 337.303 125.190 C 337.303 118.431,337.369 112.836,337.449 112.755 C 337.530 112.675,340.446 112.609,343.929 112.609 L 350.263 112.609 350.263 125.044 M37.828 131.349 L 37.828 137.303 56.392 137.303 L 74.956 137.303 74.956 131.349 L 74.956 125.394 56.392 125.394 L 37.828 125.394 37.828 131.349 M87.916 131.349 L 87.916 137.303 112.609 137.303 L 137.303 137.303 137.303 131.349 L 137.303 125.394 112.609 125.394 L 87.916 125.394 87.916 131.349 M63.047 156.394 L 63.047 162.526 93.958 162.436 L 124.869 162.347 124.964 156.305 L 125.060 150.263 94.054 150.263 L 63.047 150.263 63.047 156.394 M137.733 156.305 L 137.828 162.347 156.392 162.347 L 174.956 162.347 175.052 156.305 L 175.148 150.263 156.392 150.263 L 137.637 150.263 137.733 156.305 M311.034 162.960 C 311.034 163.104,310.859 163.222,310.646 163.222 C 308.861 163.222,304.575 166.541,301.928 169.973 L 300.353 172.014 300.351 186.357 C 300.351 194.245,300.468 200.700,300.613 200.700 C 300.757 200.700,300.877 201.213,300.879 201.839 C 300.893 206.379,306.989 211.899,311.996 211.906 C 313.454 211.908,314.536 212.058,314.536 212.259 C 314.536 212.474,316.229 212.609,318.914 212.609 C 321.600 212.609,323.292 212.474,323.292 212.259 C 323.292 212.061,324.306 211.909,325.634 211.909 C 329.643 211.909,335.074 207.996,336.178 204.312 C 337.991 198.260,337.804 174.620,335.908 170.336 C 334.535 167.231,330.092 163.842,326.795 163.383 C 325.928 163.263,324.982 163.078,324.694 162.972 C 323.879 162.675,311.035 162.663,311.034 162.960 M225.452 163.106 C 225.161 163.397,225.140 211.647,225.432 212.406 C 225.614 212.881,226.489 212.960,231.561 212.960 L 237.478 212.960 237.478 187.916 L 237.478 162.872 231.582 162.872 C 228.339 162.872,225.581 162.977,225.452 163.106 M250.438 187.916 L 250.438 212.960 256.392 212.960 L 262.347 212.960 262.347 187.916 L 262.347 162.872 256.392 162.872 L 250.438 162.872 250.438 187.916 M274.956 187.916 L 274.956 212.960 281.086 212.960 L 287.215 212.960 287.215 187.916 L 287.215 162.872 281.086 162.872 L 274.956 162.872 274.956 187.916 M350.263 187.916 L 350.263 212.960 356.180 212.960 C 361.252 212.960,362.127 212.881,362.309 212.406 C 362.426 212.101,362.522 200.831,362.522 187.362 L 362.522 162.872 356.392 162.872 L 350.263 162.872 350.263 187.916 M63.047 181.087 L 63.047 187.393 106.567 187.304 L 150.088 187.215 150.183 180.998 L 150.279 174.781 106.663 174.781 L 63.047 174.781 63.047 181.087 M325.311 187.653 L 325.219 200.175 319.002 200.271 L 312.785 200.366 312.785 187.932 L 312.785 175.498 318.827 175.393 C 322.150 175.336,324.989 175.253,325.136 175.210 C 325.283 175.167,325.361 180.766,325.311 187.653 M37.828 206.101 C 37.828 209.264,37.924 212.101,38.041 212.406 C 38.229 212.896,39.638 212.960,50.300 212.960 L 62.347 212.960 62.347 206.655 L 62.347 200.350 50.088 200.350 L 37.828 200.350 37.828 206.101 M74.956 206.232 C 74.956 210.344,75.083 212.246,75.377 212.539 C 75.695 212.858,81.695 212.960,100.239 212.960 L 124.680 212.960 124.875 212.172 C 124.982 211.738,125.024 208.940,124.969 205.954 L 124.869 200.525 99.912 200.435 L 74.956 200.346 74.956 206.232 M63.047 231.524 L 63.047 237.478 81.436 237.478 L 99.825 237.478 99.825 231.524 L 99.825 225.569 81.436 225.569 L 63.047 225.569 63.047 231.524 M112.785 231.524 L 112.785 237.478 143.958 237.478 L 175.131 237.478 175.131 231.524 L 175.131 225.569 143.958 225.569 L 112.785 225.569 112.785 231.524 M63.047 256.392 L 63.047 262.347 106.655 262.347 L 150.263 262.347 150.263 256.392 L 150.263 250.438 106.655 250.438 L 63.047 250.438 63.047 256.392 M63.047 281.438 L 63.047 287.569 93.958 287.480 L 124.869 287.391 124.964 281.349 L 125.060 275.306 94.054 275.306 L 63.047 275.306 63.047 281.438 M137.733 281.349 L 137.828 287.391 156.392 287.391 L 174.956 287.391 175.052 281.349 L 175.148 275.306 156.392 275.306 L 137.637 275.306 137.733 281.349 M37.984 300.624 C 37.889 300.874,37.854 303.672,37.907 306.844 L 38.004 312.609 62.602 312.699 L 87.201 312.789 87.396 311.999 C 87.503 311.564,87.546 308.765,87.491 305.779 L 87.391 300.350 62.775 300.260 C 42.883 300.188,38.125 300.257,37.984 300.624 M100.525 306.475 L 100.525 312.785 112.603 312.785 L 124.680 312.785 124.875 311.996 C 124.982 311.563,125.024 308.765,124.969 305.779 L 124.869 300.350 112.697 300.258 L 100.525 300.166 100.525 306.475 " stroke="none" fill="#040404" fill-rule="evenodd"></path><path id="path1" d="M143.170 0.263 C 174.426 0.312,225.574 0.312,256.830 0.263 C 288.087 0.213,262.513 0.173,200.000 0.173 C 137.487 0.173,111.913 0.213,143.170 0.263 M20.753 0.608 C 21.668 0.680,23.165 0.680,24.081 0.608 C 24.996 0.536,24.247 0.477,22.417 0.477 C 20.587 0.477,19.838 0.536,20.753 0.608 M34.939 0.611 C 36.528 0.676,39.129 0.676,40.718 0.611 C 42.307 0.546,41.007 0.493,37.828 0.493 C 34.650 0.493,33.349 0.546,34.939 0.611 M359.632 0.611 C 361.222 0.676,363.822 0.676,365.412 0.611 C 367.001 0.546,365.701 0.493,362.522 0.493 C 359.343 0.493,358.043 0.546,359.632 0.611 M376.280 0.608 C 377.201 0.681,378.620 0.680,379.433 0.606 C 380.246 0.533,379.492 0.474,377.758 0.475 C 376.025 0.476,375.359 0.536,376.280 0.608 M10.158 1.051 C 9.454 1.276,9.419 1.333,9.982 1.342 C 10.368 1.347,10.998 1.216,11.384 1.051 C 12.276 0.667,11.355 0.667,10.158 1.051 M14.282 0.957 C 15.106 1.031,16.367 1.030,17.085 0.955 C 17.802 0.880,17.128 0.819,15.587 0.821 C 14.046 0.822,13.459 0.883,14.282 0.957 M383.459 0.957 C 384.283 1.031,385.544 1.030,386.261 0.955 C 386.979 0.880,386.305 0.819,384.764 0.821 C 383.222 0.822,382.636 0.883,383.459 0.957 M388.539 0.915 C 388.674 1.050,389.503 1.270,390.382 1.403 C 391.260 1.536,391.852 1.532,391.698 1.393 C 391.334 1.064,388.216 0.592,388.539 0.915 M395.797 4.729 C 396.843 5.788,397.778 6.655,397.874 6.655 C 397.971 6.655,397.193 5.788,396.147 4.729 C 395.101 3.669,394.166 2.802,394.069 2.802 C 393.973 2.802,394.750 3.669,395.797 4.729 M0.439 15.937 C 0.442 16.708,0.514 16.982,0.598 16.546 C 0.682 16.110,0.679 15.480,0.591 15.145 C 0.503 14.810,0.435 15.166,0.439 15.937 M0.088 21.891 C 0.092 22.662,0.164 22.936,0.248 22.500 C 0.332 22.065,0.328 21.434,0.241 21.099 C 0.153 20.764,0.084 21.121,0.088 21.891 M0.000 25.219 C 0.000 25.440,2.393 25.569,6.480 25.569 C 10.566 25.569,12.960 25.440,12.960 25.219 C 12.960 24.998,10.566 24.869,6.480 24.869 C 2.393 24.869,0.000 24.998,0.000 25.219 M237.068 37.813 C 235.975 37.920,234.950 38.144,234.791 38.312 C 234.627 38.483,234.882 38.494,235.377 38.336 C 235.858 38.182,239.247 38.073,242.907 38.093 C 246.567 38.112,249.405 38.074,249.212 38.008 C 248.532 37.773,239.028 37.620,237.068 37.813 M287.215 62.326 L 287.215 87.215 281.086 87.215 C 277.233 87.215,274.956 87.346,274.956 87.566 C 274.956 88.098,286.960 88.031,287.496 87.496 C 288.042 86.950,288.110 37.990,287.566 37.653 C 287.333 37.510,287.215 45.822,287.215 62.326 M299.825 62.484 C 299.825 84.964,299.881 87.512,300.379 87.703 C 301.344 88.074,312.785 87.947,312.785 87.566 C 312.785 87.345,310.447 87.215,306.473 87.215 L 300.161 87.215 300.256 62.347 C 300.308 48.669,300.232 37.478,300.088 37.478 C 299.943 37.478,299.825 48.731,299.825 62.484 M337.478 37.823 C 336.515 37.925,338.879 38.035,342.732 38.067 C 346.585 38.100,349.580 38.072,349.387 38.005 C 348.744 37.781,339.254 37.637,337.478 37.823 M251.138 38.179 C 251.427 38.365,251.979 38.510,252.364 38.499 L 253.065 38.480 252.364 38.179 C 251.317 37.729,250.442 37.729,251.138 38.179 M0.175 194.046 L 0.175 350.088 106.567 350.088 L 212.960 350.089 106.655 350.000 L 0.351 349.911 0.263 193.957 L 0.174 38.004 0.175 194.046 M230.810 40.656 L 229.597 41.732 230.911 40.789 C 232.071 39.956,232.449 39.580,232.123 39.580 C 232.068 39.580,231.477 40.064,230.810 40.656 M225.445 48.030 C 225.321 49.218,225.242 51.231,225.269 52.503 C 225.305 54.153,225.404 53.567,225.613 50.461 C 225.924 45.849,225.824 44.401,225.445 48.030 M325.306 46.788 C 325.162 46.933,325.044 48.476,325.044 50.216 C 325.044 52.409,325.156 53.268,325.408 53.015 C 325.623 52.801,325.731 51.385,325.671 49.587 C 325.615 47.902,325.451 46.642,325.306 46.788 M262.002 50.330 C 261.999 50.752,262.154 51.194,262.347 51.313 C 262.793 51.589,262.793 50.778,262.347 50.088 C 262.071 49.660,262.006 49.706,262.002 50.330 M106.217 50.350 L 199.650 50.439 199.650 56.393 L 199.650 62.347 106.060 62.347 C 43.551 62.347,12.586 62.463,12.820 62.698 C 13.053 62.931,44.573 63.019,106.673 62.960 L 200.175 62.872 200.271 56.480 L 200.366 50.088 106.575 50.174 L 12.785 50.261 106.217 50.350 M241.085 50.349 C 242.781 50.413,245.460 50.413,247.040 50.348 C 248.620 50.283,247.233 50.230,243.958 50.231 C 240.683 50.231,239.390 50.284,241.085 50.349 M250.087 62.592 C 249.991 69.566,250.033 75.152,250.180 75.004 C 250.327 74.857,250.405 69.151,250.355 62.325 L 250.262 49.912 250.087 62.592 M340.875 50.348 C 342.551 50.412,345.388 50.412,347.180 50.349 C 348.972 50.285,347.601 50.233,344.133 50.232 C 340.665 50.232,339.200 50.284,340.875 50.348 M337.461 62.697 C 337.461 69.536,337.508 72.334,337.565 68.914 C 337.622 65.495,337.622 59.899,337.565 56.480 C 337.508 53.060,337.461 55.858,337.461 62.697 M262.489 62.697 C 262.489 65.876,262.542 67.176,262.607 65.587 C 262.672 63.997,262.672 61.397,262.607 59.807 C 262.542 58.218,262.489 59.518,262.489 62.697 M225.364 66.200 C 225.364 69.764,225.416 71.222,225.480 69.440 C 225.543 67.658,225.543 64.742,225.480 62.960 C 225.416 61.178,225.364 62.636,225.364 66.200 M262.252 74.117 C 262.111 74.258,261.996 74.614,261.996 74.910 C 261.996 75.304,262.100 75.343,262.386 75.057 C 262.600 74.843,262.715 74.486,262.642 74.264 C 262.568 74.043,262.392 73.977,262.252 74.117 M225.461 75.832 C 225.573 76.795,225.790 77.820,225.944 78.109 C 226.291 78.759,225.923 75.746,225.538 74.781 C 225.377 74.378,225.344 74.824,225.461 75.832 M325.044 74.936 C 325.044 75.332,325.201 75.657,325.394 75.657 C 325.587 75.657,325.744 75.430,325.744 75.152 C 325.744 74.874,325.587 74.550,325.394 74.431 C 325.201 74.312,325.044 74.539,325.044 74.936 M199.862 75.510 C 199.481 76.504,199.618 337.242,200.000 337.478 C 200.233 337.622,200.350 293.816,200.350 206.325 C 200.350 134.072,200.288 74.956,200.213 74.956 C 200.137 74.956,199.979 75.206,199.862 75.510 M326.095 78.943 C 326.095 79.319,327.137 81.261,327.338 81.261 C 327.435 81.261,327.253 80.749,326.935 80.123 C 326.285 78.844,326.095 78.578,326.095 78.943 M327.846 82.071 C 327.846 82.131,328.358 82.644,328.984 83.209 L 330.123 84.238 329.094 83.100 C 328.135 82.039,327.846 81.800,327.846 82.071 M236.778 87.223 C 237.915 87.578,249.647 87.578,250.788 87.224 C 251.270 87.074,248.117 86.951,243.783 86.950 C 239.448 86.950,236.296 87.072,236.778 87.223 M336.953 87.221 C 337.434 87.372,340.587 87.496,343.958 87.496 C 347.329 87.496,350.482 87.372,350.963 87.221 C 351.445 87.070,348.292 86.946,343.958 86.946 C 339.623 86.946,336.471 87.070,336.953 87.221 M399.817 115.061 C 399.817 130.280,399.860 136.455,399.912 128.783 C 399.965 121.111,399.965 108.659,399.912 101.112 C 399.860 93.565,399.817 99.842,399.817 115.061 M37.712 100.058 C 37.388 100.382,37.416 112.784,37.741 112.785 C 37.885 112.785,37.957 110.027,37.900 106.655 L 37.797 100.525 62.704 100.525 L 87.611 100.525 87.501 106.655 C 87.440 110.027,87.509 112.785,87.653 112.785 C 87.965 112.785,88.012 101.183,87.703 100.379 C 87.481 99.801,38.285 99.485,37.712 100.058 M225.219 100.175 C 225.219 100.395,227.496 100.525,231.349 100.525 C 235.201 100.525,237.478 100.395,237.478 100.175 C 237.478 99.955,235.201 99.825,231.349 99.825 C 227.496 99.825,225.219 99.955,225.219 100.175 M299.986 100.263 C 299.894 100.504,299.859 111.813,299.909 125.394 L 300.000 150.088 306.480 150.104 L 312.960 150.120 306.655 149.929 L 300.350 149.737 300.260 125.131 L 300.170 100.525 306.477 100.525 C 310.449 100.525,312.785 100.396,312.785 100.175 C 312.785 99.622,300.198 99.708,299.986 100.263 M260.595 100.525 C 260.595 100.718,260.832 100.876,261.121 100.876 C 261.410 100.876,261.646 100.718,261.646 100.525 C 261.646 100.333,261.410 100.175,261.121 100.175 C 260.832 100.175,260.595 100.333,260.595 100.525 M275.306 100.525 C 275.306 100.718,275.631 100.876,276.028 100.876 C 276.424 100.876,276.651 100.718,276.532 100.525 C 276.413 100.333,276.089 100.175,275.811 100.175 C 275.534 100.175,275.306 100.333,275.306 100.525 M339.317 100.432 C 340.136 100.505,341.475 100.505,342.294 100.432 C 343.113 100.358,342.443 100.298,340.806 100.298 C 339.168 100.298,338.498 100.358,339.317 100.432 M350.263 100.525 C 350.263 100.718,350.587 100.876,350.984 100.876 C 351.381 100.876,351.608 100.718,351.489 100.525 C 351.370 100.333,351.045 100.175,350.767 100.175 C 350.490 100.175,350.263 100.333,350.263 100.525 M354.466 101.146 C 354.466 101.310,354.939 101.794,355.517 102.221 C 356.095 102.649,356.567 102.836,356.567 102.637 C 356.567 102.439,356.440 102.277,356.283 102.277 C 356.127 102.277,355.654 101.955,355.232 101.563 C 354.811 101.170,354.466 100.982,354.466 101.146 M254.272 104.291 L 253.065 105.604 254.378 104.397 C 255.601 103.274,255.853 102.977,255.585 102.977 C 255.527 102.977,254.936 103.568,254.272 104.291 M329.578 104.291 L 328.371 105.604 329.685 104.397 C 330.907 103.274,331.159 102.977,330.892 102.977 C 330.833 102.977,330.242 103.568,329.578 104.291 M358.654 104.816 C 360.106 106.363,360.420 106.641,360.420 106.378 C 360.420 106.321,359.672 105.573,358.757 104.714 L 357.093 103.152 358.654 104.816 M283.694 104.840 C 284.358 105.549,284.944 106.130,284.996 106.130 C 285.352 106.130,284.530 105.112,283.601 104.403 L 282.487 103.551 283.694 104.840 M326.598 107.415 C 326.059 108.123,325.796 108.591,326.015 108.456 C 326.463 108.179,327.979 106.130,327.736 106.130 C 327.650 106.130,327.137 106.708,326.598 107.415 M325.306 109.484 C 325.162 109.630,325.049 111.181,325.054 112.931 C 325.062 115.244,325.162 115.946,325.419 115.505 C 325.819 114.817,325.712 109.076,325.306 109.484 M250.298 114.135 C 250.158 115.359,250.120 116.436,250.212 116.529 C 250.445 116.761,250.899 112.941,250.707 112.371 C 250.621 112.117,250.437 112.911,250.298 114.135 M262.580 112.668 C 262.256 112.992,262.285 137.653,262.609 137.653 C 262.754 137.653,262.872 131.979,262.872 125.044 C 262.872 118.109,262.859 112.434,262.843 112.434 C 262.827 112.434,262.709 112.539,262.580 112.668 M337.462 112.874 C 337.370 113.116,337.335 118.830,337.386 125.571 L 337.479 137.828 337.654 125.131 C 337.750 118.148,337.784 112.434,337.730 112.434 C 337.676 112.434,337.555 112.632,337.462 112.874 M287.318 125.044 C 287.318 134.370,287.338 134.698,287.629 130.035 C 287.810 127.130,287.810 122.957,287.629 120.053 C 287.338 115.389,287.318 115.717,287.318 125.044 M250.236 125.919 C 250.236 129.965,250.287 131.572,250.349 129.491 C 250.411 127.409,250.411 124.099,250.349 122.135 C 250.286 120.171,250.236 121.874,250.236 125.919 M37.557 131.436 L 37.478 137.653 56.305 137.569 L 75.131 137.484 56.488 137.391 L 37.845 137.297 37.740 131.258 L 37.636 125.219 37.557 131.436 M87.728 131.524 L 87.741 137.478 112.697 137.568 L 137.653 137.658 137.575 131.438 L 137.496 125.219 137.391 131.261 L 137.286 137.303 112.609 137.303 L 87.932 137.303 87.824 131.436 L 87.716 125.569 87.728 131.524 M250.147 136.077 C 250.153 136.462,250.284 137.172,250.438 137.653 L 250.718 138.529 250.729 137.653 C 250.734 137.172,250.603 136.462,250.438 136.077 L 250.137 135.377 250.147 136.077 M325.044 137.457 C 325.044 137.735,325.201 138.060,325.394 138.179 C 325.587 138.298,325.744 138.071,325.744 137.674 C 325.744 137.277,325.587 136.953,325.394 136.953 C 325.201 136.953,325.044 137.180,325.044 137.457 M287.121 137.515 C 286.980 137.655,286.865 138.012,286.865 138.307 C 286.865 138.701,286.969 138.741,287.255 138.454 C 287.469 138.240,287.584 137.884,287.510 137.662 C 287.436 137.440,287.261 137.374,287.121 137.515 M285.301 143.463 C 284.975 143.961,284.768 144.429,284.842 144.503 C 284.915 144.577,285.252 144.169,285.590 143.597 C 286.345 142.319,286.119 142.214,285.301 143.463 M282.662 146.457 L 281.086 147.885 282.570 146.772 C 283.860 145.803,284.688 144.986,284.346 145.019 C 284.287 145.025,283.529 145.672,282.662 146.457 M277.758 149.212 L 276.532 149.470 277.650 149.516 C 278.265 149.541,278.865 149.405,278.984 149.212 C 279.103 149.019,279.152 148.882,279.092 148.908 C 279.033 148.933,278.433 149.070,277.758 149.212 M333.638 149.233 C 333.750 149.414,334.410 149.562,335.105 149.562 C 336.656 149.562,336.515 149.379,334.756 149.107 C 333.968 148.985,333.517 149.036,333.638 149.233 M225.218 150.000 C 225.219 150.144,228.017 150.232,231.436 150.195 C 237.692 150.127,236.954 149.999,229.334 149.829 C 227.070 149.779,225.218 149.856,225.218 150.000 M265.255 149.824 C 267.337 149.886,270.647 149.886,272.611 149.823 C 274.575 149.761,272.872 149.710,268.827 149.710 C 264.781 149.711,263.174 149.762,265.255 149.824 M340.368 149.823 C 342.342 149.886,345.574 149.886,347.548 149.823 C 349.523 149.761,347.907 149.710,343.958 149.710 C 340.009 149.710,338.393 149.761,340.368 149.823 M62.842 156.392 C 62.842 159.860,62.895 161.231,62.958 159.439 C 63.022 157.648,63.022 154.811,62.958 153.135 C 62.893 151.459,62.841 152.925,62.842 156.392 M137.370 156.305 C 137.333 159.724,137.421 162.522,137.566 162.523 C 137.710 162.523,137.787 160.671,137.737 158.407 C 137.567 150.787,137.438 150.049,137.370 156.305 M225.476 162.609 C 225.344 162.952,226.635 163.025,231.393 162.944 C 234.955 162.884,237.478 162.702,237.478 162.506 C 237.478 161.968,225.683 162.069,225.476 162.609 M250.260 162.960 C 250.155 163.393,250.114 174.860,250.169 188.441 L 250.268 213.135 250.353 188.004 L 250.438 162.872 256.392 162.872 L 262.347 162.872 262.432 187.653 L 262.517 212.434 262.616 188.091 C 262.670 174.702,262.629 163.393,262.524 162.960 C 262.336 162.181,262.263 162.172,256.392 162.172 C 250.521 162.172,250.449 162.181,250.260 162.960 M274.956 162.522 C 274.956 162.742,277.233 162.872,281.086 162.872 L 287.215 162.872 287.221 188.004 C 287.224 204.358,287.345 212.951,287.566 212.609 C 288.168 211.677,288.023 163.279,287.416 162.672 C 286.808 162.064,274.956 161.922,274.956 162.522 M350.263 162.522 C 350.263 162.742,352.481 162.872,356.217 162.872 C 359.953 162.872,362.172 162.742,362.172 162.522 C 362.172 162.302,359.953 162.172,356.217 162.172 C 352.481 162.172,350.263 162.302,350.263 162.522 M324.518 162.872 C 324.637 163.065,325.041 163.222,325.415 163.222 C 325.789 163.222,326.095 163.065,326.095 162.872 C 326.095 162.680,325.691 162.522,325.198 162.522 C 324.690 162.522,324.396 162.673,324.518 162.872 M308.705 163.570 C 308.291 163.737,307.855 164.032,307.736 164.225 C 307.558 164.512,309.452 163.760,309.953 163.344 C 310.216 163.125,309.473 163.260,308.705 163.570 M327.496 163.422 C 329.057 164.034,330.083 164.269,329.753 163.939 C 329.559 163.745,328.853 163.503,328.185 163.401 C 327.517 163.299,327.207 163.308,327.496 163.422 M304.882 166.462 L 303.853 167.601 304.991 166.572 C 305.617 166.006,306.130 165.494,306.130 165.434 C 306.130 165.163,305.841 165.401,304.882 166.462 M336.994 175.511 C 337.017 176.169,337.164 177.180,337.321 177.758 C 337.508 178.449,337.539 178.089,337.411 176.708 C 337.195 174.391,336.929 173.626,336.994 175.511 M62.776 180.794 C 62.733 184.198,62.793 187.232,62.910 187.537 C 63.196 188.283,149.719 188.399,150.006 187.653 C 150.139 187.304,141.348 187.234,106.618 187.306 L 63.063 187.396 62.959 181.001 L 62.855 174.606 62.776 180.794 M324.965 187.557 L 325.061 199.984 318.923 200.092 L 312.784 200.200 319.001 200.188 L 325.219 200.175 325.311 187.653 C 325.361 180.766,325.283 175.131,325.136 175.131 C 324.989 175.131,324.912 180.723,324.965 187.557 M337.449 187.566 C 337.449 191.226,337.501 192.676,337.564 190.787 C 337.627 188.899,337.627 185.904,337.564 184.132 C 337.500 182.360,337.449 183.905,337.449 187.566 M300.310 191.944 C 300.310 194.352,300.366 195.337,300.434 194.133 C 300.503 192.929,300.503 190.959,300.434 189.755 C 300.366 188.551,300.310 189.536,300.310 191.944 M337.144 198.687 C 337.018 199.891,336.838 201.349,336.744 201.926 C 336.625 202.655,336.670 202.816,336.892 202.452 C 337.224 201.907,337.801 196.497,337.527 196.497 C 337.442 196.497,337.269 197.482,337.144 198.687 M37.478 206.475 C 37.478 210.042,37.596 212.960,37.741 212.960 C 37.885 212.960,37.954 210.123,37.894 206.655 L 37.784 200.350 50.057 200.350 L 62.331 200.350 62.439 206.480 L 62.547 212.610 62.534 206.393 L 62.522 200.175 50.000 200.083 L 37.478 199.991 37.478 206.475 M83.713 200.256 C 106.930 200.498,125.044 200.501,125.044 200.263 C 125.044 200.118,113.735 200.037,99.912 200.081 C 86.090 200.126,78.800 200.205,83.713 200.256 M333.431 208.319 L 332.224 209.632 333.538 208.425 C 334.760 207.302,335.012 207.005,334.745 207.005 C 334.686 207.005,334.095 207.596,333.431 208.319 M311.033 212.259 C 311.033 212.452,311.821 212.609,312.785 212.609 C 313.748 212.609,314.536 212.452,314.536 212.259 C 314.536 212.067,313.748 211.909,312.785 211.909 C 311.821 211.909,311.033 212.067,311.033 212.259 M323.292 212.259 C 323.292 212.452,324.002 212.609,324.869 212.609 C 325.736 212.609,326.445 212.452,326.445 212.259 C 326.445 212.067,325.736 211.909,324.869 211.909 C 324.002 211.909,323.292 212.067,323.292 212.259 M62.776 231.433 L 62.854 237.653 62.959 231.611 L 63.064 225.569 81.436 225.569 L 99.808 225.569 99.917 231.524 L 100.026 237.479 100.013 231.436 L 100.000 225.394 81.349 225.303 L 62.697 225.213 62.776 231.433 M128.284 225.482 C 136.905 225.534,151.011 225.534,159.632 225.482 C 168.253 225.429,161.200 225.387,143.958 225.387 C 126.716 225.387,119.663 225.429,128.284 225.482 M225.219 250.175 C 225.219 250.320,261.826 250.399,306.567 250.352 C 351.309 250.305,374.755 250.227,358.669 250.177 C 280.650 249.939,225.219 249.938,225.219 250.175 M62.852 250.539 C 62.757 250.787,62.722 253.585,62.776 256.756 L 62.872 262.522 106.392 262.524 L 149.912 262.526 106.480 262.435 L 63.047 262.344 63.047 256.392 L 63.047 250.441 106.567 250.350 L 150.088 250.260 106.556 250.174 C 71.301 250.104,62.992 250.173,62.852 250.539 M399.794 256.743 C 399.794 260.114,399.846 261.493,399.911 259.807 C 399.975 258.122,399.975 255.363,399.911 253.678 C 399.846 251.992,399.794 253.371,399.794 256.743 M62.842 281.436 C 62.842 284.904,62.895 286.275,62.958 284.483 C 63.022 282.691,63.022 279.854,62.958 278.178 C 62.893 276.503,62.841 277.968,62.842 281.436 M137.370 281.349 C 137.333 284.768,137.421 287.566,137.566 287.566 C 137.710 287.567,137.787 285.715,137.737 283.451 C 137.567 275.831,137.438 275.093,137.370 281.349 M398.744 278.629 C 398.548 279.474,398.508 280.091,398.655 280.001 C 398.958 279.813,399.459 277.451,399.242 277.234 C 399.164 277.156,398.940 277.784,398.744 278.629 M395.255 283.754 C 394.493 284.547,394.186 285.001,394.571 284.762 C 395.224 284.357,397.060 282.312,396.770 282.312 C 396.698 282.312,396.016 282.961,395.255 283.754 M390.718 286.760 C 390.140 286.833,384.702 287.019,378.634 287.174 L 367.601 287.455 379.379 287.510 C 389.468 287.558,391.220 287.490,391.594 287.040 C 391.834 286.751,391.971 286.540,391.899 286.571 C 391.828 286.602,391.296 286.687,390.718 286.760 M226.970 287.566 C 228.971 287.858,233.151 288.013,232.896 287.786 C 232.815 287.715,231.016 287.573,228.897 287.471 C 226.271 287.344,225.657 287.374,226.970 287.566 M288.967 287.552 C 285.788 287.656,296.821 287.693,313.485 287.633 C 330.149 287.574,344.019 287.475,344.308 287.411 C 345.176 287.222,295.205 287.349,288.967 287.552 M238.441 287.824 C 239.453 287.895,241.108 287.895,242.119 287.824 C 243.130 287.753,242.303 287.695,240.280 287.695 C 238.257 287.695,237.430 287.753,238.441 287.824 M268.564 287.826 C 269.961 287.892,272.246 287.892,273.643 287.826 C 275.039 287.759,273.897 287.705,271.103 287.705 C 268.310 287.705,267.167 287.759,268.564 287.826 M260.858 288.163 C 261.292 288.247,262.001 288.247,262.434 288.163 C 262.868 288.080,262.513 288.011,261.646 288.011 C 260.779 288.011,260.425 288.080,260.858 288.163 M260.423 295.271 C 260.838 296.686,261.339 297.353,261.080 296.147 C 260.957 295.569,260.700 294.939,260.511 294.746 C 260.285 294.516,260.255 294.696,260.423 295.271 M37.478 306.302 C 37.478 309.868,37.596 312.785,37.741 312.785 C 37.885 312.785,38.004 309.987,38.004 306.568 L 38.004 300.350 62.697 300.350 L 87.391 300.350 87.391 306.568 C 87.391 309.987,87.512 312.785,87.661 312.785 C 87.810 312.785,87.889 309.908,87.836 306.392 L 87.741 300.000 62.609 299.910 L 37.478 299.820 37.478 306.302 M100.037 300.379 C 99.672 301.331,99.796 312.375,100.175 312.609 C 100.404 312.751,100.525 310.625,100.525 306.492 L 100.525 300.158 112.785 300.254 C 119.527 300.307,125.044 300.232,125.044 300.088 C 125.044 299.496,100.266 299.784,100.037 300.379 M262.477 302.059 C 262.605 302.421,262.885 303.412,263.099 304.262 C 263.312 305.111,263.553 305.740,263.633 305.660 C 263.863 305.430,262.992 302.141,262.598 301.751 C 262.360 301.516,262.320 301.617,262.477 302.059 M252.360 310.333 C 252.499 311.007,252.749 311.703,252.914 311.879 C 253.080 312.055,253.047 311.583,252.841 310.828 C 252.361 309.071,252.029 308.730,252.360 310.333 M267.823 319.965 C 268.191 321.631,268.693 322.633,268.438 321.191 C 268.319 320.517,268.079 319.729,267.906 319.440 C 267.700 319.096,267.671 319.278,267.823 319.965 M257.529 327.936 C 257.728 328.753,258.049 329.580,258.244 329.772 C 258.481 330.007,258.514 329.892,258.346 329.422 C 258.208 329.037,258.006 328.285,257.899 327.751 C 257.791 327.217,257.583 326.706,257.436 326.615 C 257.289 326.525,257.331 327.119,257.529 327.936 M270.320 328.387 C 270.412 328.866,270.602 329.329,270.744 329.417 C 270.886 329.504,270.927 329.184,270.836 328.706 C 270.744 328.227,270.553 327.764,270.412 327.676 C 270.270 327.589,270.229 327.908,270.320 328.387 M256.743 337.303 C 256.339 337.563,256.462 337.643,257.268 337.643 C 257.846 337.643,258.555 337.490,258.844 337.303 C 259.247 337.042,259.125 336.963,258.319 336.963 C 257.741 336.963,257.032 337.116,256.743 337.303 M274.256 337.303 C 274.545 337.490,275.490 337.643,276.357 337.643 C 277.503 337.643,277.790 337.550,277.408 337.303 C 277.119 337.116,276.173 336.963,275.306 336.963 C 274.161 336.963,273.874 337.056,274.256 337.303 M286.856 337.666 C 286.507 337.887,286.482 337.995,286.778 337.998 C 287.110 338.002,287.215 339.432,287.215 343.962 L 287.215 349.920 256.251 349.829 C 239.220 349.778,225.359 349.856,225.448 350.000 C 225.640 350.311,286.554 350.360,287.362 350.050 C 287.837 349.868,287.915 349.004,287.911 344.008 C 287.905 337.987,287.757 337.097,286.856 337.666 " stroke="none" fill="#585858" fill-rule="evenodd"></path><path id="path2" d="M37.237 0.262 C 40.283 0.321,45.170 0.320,48.095 0.262 C 51.021 0.203,48.529 0.156,42.557 0.156 C 36.585 0.156,34.191 0.204,37.237 0.262 M352.474 0.262 C 355.520 0.321,360.406 0.320,363.332 0.262 C 366.258 0.203,363.765 0.156,357.793 0.156 C 351.821 0.156,349.428 0.204,352.474 0.262 M13.753 0.602 C 14.285 0.682,15.073 0.680,15.504 0.597 C 15.935 0.514,15.499 0.448,14.536 0.450 C 13.573 0.453,13.220 0.521,13.753 0.602 M385.031 0.602 C 385.564 0.682,386.352 0.680,386.782 0.597 C 387.213 0.514,386.778 0.448,385.814 0.450 C 384.851 0.453,384.499 0.521,385.031 0.602 M392.119 1.401 C 392.238 1.594,392.563 1.751,392.840 1.751 C 393.118 1.751,393.345 1.871,393.345 2.017 C 393.345 2.164,393.654 2.477,394.033 2.713 C 395.077 3.365,394.569 2.296,393.503 1.597 C 392.563 0.981,391.792 0.872,392.119 1.401 M6.271 1.967 C 5.865 2.456,5.891 2.515,6.462 2.405 C 6.825 2.334,7.188 2.080,7.268 1.839 C 7.476 1.214,6.827 1.297,6.271 1.967 M3.268 4.743 C 2.225 5.811,1.217 7.094,1.027 7.594 C 0.553 8.840,0.821 8.972,1.429 7.793 C 1.702 7.263,2.004 6.747,2.101 6.645 C 2.198 6.543,3.059 5.637,4.015 4.631 C 4.971 3.625,5.620 2.802,5.458 2.802 C 5.296 2.802,4.310 3.676,3.268 4.743 M395.458 3.765 C 395.474 4.147,397.198 5.345,397.198 4.974 C 397.198 4.623,396.044 3.503,395.682 3.503 C 395.552 3.503,395.452 3.621,395.458 3.765 M398.249 6.569 C 398.249 6.762,398.485 7.116,398.774 7.356 C 399.067 7.599,399.299 7.637,399.299 7.441 C 399.299 7.249,399.063 6.895,398.774 6.655 C 398.481 6.412,398.249 6.374,398.249 6.569 M399.649 18.669 L 399.824 29.247 399.917 18.937 C 399.969 13.267,399.890 8.506,399.743 8.359 C 399.595 8.211,399.553 12.851,399.649 18.669 M0.109 16.287 C 0.111 17.443,0.176 17.874,0.254 17.244 C 0.332 16.615,0.330 15.669,0.250 15.143 C 0.170 14.616,0.107 15.131,0.109 16.287 M246.854 37.732 C 247.483 37.810,248.429 37.808,248.955 37.728 C 249.482 37.648,248.967 37.585,247.811 37.587 C 246.655 37.589,246.224 37.654,246.854 37.732 M346.848 37.729 C 347.377 37.809,348.244 37.809,348.774 37.729 C 349.304 37.649,348.870 37.583,347.811 37.583 C 346.751 37.583,346.318 37.649,346.848 37.729 M254.291 38.550 C 254.291 38.754,254.448 38.823,254.641 38.704 C 254.834 38.585,254.991 38.629,254.991 38.802 C 254.991 38.975,255.346 39.297,255.779 39.518 C 256.213 39.739,256.955 40.197,257.428 40.538 C 257.910 40.884,258.164 40.953,258.006 40.695 C 257.274 39.501,254.291 37.779,254.291 38.550 M354.816 38.879 C 355.799 39.648,356.217 39.750,356.217 39.221 C 356.217 39.023,355.813 38.708,355.319 38.520 C 353.983 38.012,353.839 38.115,354.816 38.879 M331.961 38.907 C 331.624 39.104,331.349 39.409,331.349 39.586 C 331.349 40.061,332.314 39.607,332.536 39.027 C 332.760 38.444,332.758 38.443,331.961 38.907 M231.386 39.434 C 231.255 39.775,231.333 39.935,231.589 39.850 C 232.113 39.675,232.401 38.879,231.941 38.879 C 231.752 38.879,231.503 39.129,231.386 39.434 M328.465 42.119 C 327.314 43.323,326.042 44.658,325.639 45.086 C 325.236 45.513,325.029 45.986,325.179 46.136 C 325.329 46.286,325.678 46.094,325.955 45.709 C 326.896 44.399,327.580 43.610,329.366 41.769 C 330.347 40.757,331.016 39.930,330.853 39.930 C 330.691 39.930,329.616 40.915,328.465 42.119 M357.521 40.656 C 357.949 41.102,358.387 41.379,358.495 41.271 C 358.603 41.164,358.252 40.799,357.717 40.461 L 356.743 39.845 357.521 40.656 M228.479 41.906 C 226.322 44.083,224.497 46.860,226.095 45.534 C 226.384 45.294,226.620 44.940,226.620 44.746 C 226.620 44.552,227.514 43.548,228.607 42.514 C 229.700 41.481,230.498 40.538,230.379 40.420 C 230.261 40.302,229.406 40.971,228.479 41.906 M360.138 43.412 C 360.386 43.808,360.718 44.133,360.876 44.133 C 361.033 44.133,361.065 44.291,360.946 44.483 C 360.827 44.676,360.913 44.834,361.138 44.834 C 361.366 44.834,361.452 44.590,361.333 44.280 C 361.217 43.975,361.121 43.665,361.121 43.591 C 361.121 43.518,360.798 43.285,360.404 43.074 C 359.743 42.720,359.722 42.745,360.138 43.412 M260.267 43.257 C 260.267 43.450,260.499 43.914,260.782 44.288 C 261.065 44.662,261.296 44.810,261.296 44.617 C 261.296 44.425,261.065 43.961,260.782 43.587 C 260.499 43.213,260.267 43.065,260.267 43.257 M261.996 48.491 C 261.996 48.768,262.154 49.093,262.347 49.212 C 262.539 49.331,262.697 49.104,262.697 48.707 C 262.697 48.311,262.539 47.986,262.347 47.986 C 262.154 47.986,261.996 48.213,261.996 48.491 M237.986 62.697 C 237.986 69.536,238.033 72.334,238.091 68.914 C 238.148 65.495,238.148 59.899,238.091 56.480 C 238.033 53.060,237.986 55.858,237.986 62.697 M249.895 62.697 C 249.895 69.536,249.942 72.334,249.999 68.914 C 250.057 65.495,250.057 59.899,249.999 56.480 C 249.942 53.060,249.895 55.858,249.895 62.697 M337.811 62.697 C 337.811 69.536,337.858 72.334,337.915 68.914 C 337.973 65.495,337.973 59.899,337.915 56.480 C 337.858 53.060,337.811 55.858,337.811 62.697 M349.720 62.697 C 349.720 69.536,349.767 72.334,349.824 68.914 C 349.882 65.495,349.882 59.899,349.824 56.480 C 349.767 53.060,349.720 55.858,349.720 62.697 M262.815 54.641 C 262.815 56.086,262.877 56.677,262.952 55.954 C 263.028 55.232,263.028 54.050,262.952 53.327 C 262.877 52.605,262.815 53.196,262.815 54.641 M362.562 56.830 C 362.593 60.069,362.673 60.777,362.892 59.720 C 363.309 57.705,363.295 52.539,362.872 52.539 C 362.656 52.539,362.537 54.176,362.562 56.830 M324.694 65.712 C 324.694 69.897,324.771 73.244,324.867 73.149 C 325.160 72.855,325.257 58.450,324.966 58.271 C 324.816 58.178,324.694 61.527,324.694 65.712 M225.015 66.375 C 225.015 70.035,225.067 71.485,225.130 69.597 C 225.193 67.708,225.193 64.713,225.129 62.942 C 225.066 61.170,225.014 62.715,225.015 66.375 M362.563 68.389 C 362.538 70.927,362.656 72.504,362.872 72.504 C 363.280 72.504,363.280 66.926,362.872 65.324 C 362.700 64.647,362.590 65.735,362.563 68.389 M262.815 70.403 C 262.815 71.848,262.877 72.439,262.952 71.716 C 263.028 70.994,263.028 69.812,262.952 69.089 C 262.877 68.367,262.815 68.958,262.815 70.403 M59.485 75.569 C 85.363 75.619,127.605 75.619,153.356 75.569 C 179.106 75.520,157.933 75.479,106.305 75.479 C 54.676 75.479,33.607 75.520,59.485 75.569 M325.394 78.941 C 325.394 79.207,325.660 79.640,325.985 79.905 C 326.505 80.328,326.547 80.308,326.335 79.744 C 326.203 79.391,326.095 78.957,326.095 78.780 C 326.095 78.604,325.937 78.459,325.744 78.459 C 325.552 78.459,325.394 78.676,325.394 78.941 M226.620 81.527 C 226.620 81.673,226.945 81.996,227.341 82.243 C 228.008 82.660,228.033 82.639,227.679 81.977 C 227.307 81.282,226.620 80.990,226.620 81.527 M359.370 82.609 C 358.695 83.324,357.536 84.427,356.793 85.059 C 356.051 85.691,355.518 86.283,355.610 86.375 C 355.868 86.632,361.121 81.929,361.121 81.441 C 361.121 80.995,360.500 81.409,359.370 82.609 M257.618 84.413 C 257.065 84.991,256.774 85.464,256.973 85.464 C 257.333 85.464,258.161 84.635,258.636 83.800 C 259.045 83.082,258.687 83.298,257.618 84.413 M229.597 84.599 C 230.964 85.719,231.529 85.712,230.473 84.588 C 230.020 84.107,229.402 83.718,229.098 83.725 C 228.725 83.734,228.886 84.016,229.597 84.599 M329.247 83.948 C 329.247 84.395,330.591 85.637,330.824 85.405 C 330.918 85.311,330.602 84.864,330.121 84.412 C 329.640 83.960,329.247 83.751,329.247 83.948 M255.062 86.236 C 253.825 87.000,253.774 87.427,254.965 87.049 C 255.365 86.922,255.856 86.513,256.055 86.141 C 256.484 85.338,256.520 85.335,255.062 86.236 M231.524 86.173 C 231.524 86.469,232.920 87.215,233.473 87.215 C 233.972 87.215,233.488 86.565,232.733 86.221 C 231.641 85.723,231.524 85.719,231.524 86.173 M331.699 86.143 C 331.699 86.602,333.026 87.299,333.557 87.119 C 333.787 87.042,333.463 86.712,332.837 86.387 C 332.211 86.062,331.699 85.952,331.699 86.143 M237.653 125.044 C 237.653 138.914,237.771 150.263,237.916 150.263 C 238.060 150.263,238.179 138.914,238.179 125.044 C 238.179 111.173,238.060 99.825,237.916 99.825 C 237.771 99.825,237.653 111.173,237.653 125.044 M265.061 100.085 C 266.651 100.150,269.251 100.150,270.841 100.085 C 272.430 100.021,271.130 99.967,267.951 99.967 C 264.772 99.967,263.472 100.021,265.061 100.085 M344.913 100.078 C 345.535 100.155,346.639 100.156,347.365 100.080 C 348.092 100.005,347.583 99.941,346.235 99.940 C 344.886 99.938,344.292 100.000,344.913 100.078 M259.124 100.595 C 259.451 100.922,259.638 100.922,259.965 100.595 C 260.292 100.269,260.198 100.175,259.545 100.175 C 258.891 100.175,258.797 100.269,259.124 100.595 M277.408 100.525 C 277.408 100.718,277.644 100.876,277.933 100.876 C 278.222 100.876,278.459 100.718,278.459 100.525 C 278.459 100.333,278.222 100.175,277.933 100.175 C 277.644 100.175,277.408 100.333,277.408 100.525 M257.093 101.226 C 256.649 101.611,256.191 101.931,256.076 101.938 C 255.652 101.960,253.867 103.721,254.066 103.920 C 254.179 104.033,254.889 103.569,255.644 102.887 C 256.398 102.206,257.348 101.542,257.755 101.413 C 258.161 101.284,258.494 101.032,258.494 100.852 C 258.494 100.330,257.963 100.471,257.093 101.226 M279.159 100.819 C 279.159 100.981,279.553 101.293,280.035 101.512 C 281.046 101.973,281.137 101.852,280.360 101.076 C 279.763 100.478,279.159 100.350,279.159 100.819 M332.191 101.420 L 331.173 102.314 332.137 101.889 C 332.666 101.655,333.100 101.322,333.100 101.149 C 333.100 100.976,333.257 100.932,333.450 101.051 C 333.643 101.170,333.800 101.100,333.800 100.896 C 333.800 100.295,333.277 100.466,332.191 101.420 M357.093 102.977 C 358.875 104.520,359.223 104.695,358.635 103.753 C 358.266 103.163,356.109 101.576,355.675 101.576 C 355.565 101.576,356.202 102.207,357.093 102.977 M281.272 102.189 C 281.288 102.571,283.012 103.769,283.012 103.398 C 283.012 103.047,281.858 101.926,281.496 101.926 C 281.367 101.926,281.266 102.045,281.272 102.189 M328.578 104.220 C 327.729 105.080,327.122 105.873,327.231 105.981 C 327.416 106.167,330.648 103.151,330.648 102.793 C 330.648 102.340,329.979 102.802,328.578 104.220 M283.925 104.524 C 284.042 104.829,284.292 105.079,284.480 105.079 C 284.940 105.079,284.652 104.283,284.128 104.108 C 283.873 104.023,283.794 104.183,283.925 104.524 M252.713 105.081 C 252.363 105.467,252.159 105.866,252.261 105.968 C 252.362 106.069,252.706 105.752,253.025 105.265 C 253.723 104.199,253.584 104.118,252.713 105.081 M359.720 105.268 C 359.720 105.360,360.193 106.088,360.771 106.886 C 361.955 108.520,362.043 108.497,361.309 106.740 C 360.889 105.736,359.720 104.652,359.720 105.268 M250.972 107.513 C 250.358 108.702,250.277 109.423,250.794 109.103 C 250.990 108.982,251.059 108.737,250.948 108.557 C 250.837 108.378,250.888 108.231,251.061 108.231 C 251.235 108.231,251.556 107.837,251.775 107.356 C 252.343 106.110,251.625 106.251,250.972 107.513 M326.007 107.318 C 325.331 107.831,325.210 108.231,325.732 108.231 C 325.918 108.231,326.239 107.916,326.445 107.531 C 326.882 106.714,326.833 106.691,326.007 107.318 M286.165 107.881 C 286.165 108.074,286.317 108.231,286.504 108.231 C 286.690 108.231,286.752 108.468,286.642 108.757 C 286.531 109.046,286.614 109.282,286.828 109.282 C 287.263 109.282,287.318 108.905,287.003 108.085 C 286.768 107.474,286.165 107.327,286.165 107.881 M250.176 111.909 C 250.180 112.680,250.252 112.954,250.335 112.518 C 250.419 112.082,250.416 111.452,250.328 111.117 C 250.241 110.782,250.172 111.138,250.176 111.909 M337.811 125.044 C 337.811 131.883,337.858 134.680,337.915 131.261 C 337.973 127.842,337.973 122.246,337.915 118.827 C 337.858 115.407,337.811 118.205,337.811 125.044 M349.720 125.044 C 349.720 131.883,349.767 134.680,349.824 131.261 C 349.882 127.842,349.882 122.246,349.824 118.827 C 349.767 115.407,349.720 118.205,349.720 125.044 M287.666 114.711 C 287.668 115.674,287.737 116.027,287.817 115.494 C 287.898 114.962,287.895 114.174,287.812 113.743 C 287.729 113.312,287.663 113.748,287.666 114.711 M362.563 119.352 C 362.590 122.005,362.700 123.094,362.872 122.417 C 363.280 120.815,363.280 115.236,362.872 115.236 C 362.656 115.236,362.538 116.814,362.563 119.352 M249.886 126.095 C 249.886 130.236,249.937 131.931,249.999 129.860 C 250.061 127.789,250.061 124.400,249.999 122.329 C 249.937 120.258,249.886 121.953,249.886 126.095 M324.694 128.234 C 324.694 132.516,324.776 135.937,324.876 135.836 C 325.178 135.534,325.269 120.805,324.970 120.620 C 324.818 120.526,324.694 123.952,324.694 128.234 M75.241 131.173 L 75.350 137.653 56.414 137.653 C 44.024 137.653,37.478 137.774,37.478 138.004 C 37.478 138.233,44.075 138.354,56.567 138.354 L 75.657 138.354 75.657 131.524 C 75.657 127.767,75.539 124.693,75.394 124.693 C 75.250 124.693,75.181 127.609,75.241 131.173 M87.215 131.524 L 87.215 138.354 112.609 138.354 L 138.004 138.354 137.924 131.436 L 137.845 124.518 137.741 131.086 L 137.638 137.653 112.587 137.653 L 87.536 137.653 87.638 131.173 C 87.695 127.609,87.623 124.693,87.478 124.693 C 87.334 124.693,87.215 127.767,87.215 131.524 M362.562 130.911 C 362.537 133.565,362.656 135.201,362.872 135.201 C 363.295 135.201,363.309 130.036,362.892 128.021 C 362.673 126.963,362.593 127.671,362.562 130.911 M287.666 135.377 C 287.668 136.340,287.737 136.692,287.817 136.160 C 287.898 135.627,287.895 134.839,287.812 134.408 C 287.729 133.978,287.663 134.413,287.666 135.377 M325.394 141.127 C 325.394 141.693,325.810 142.557,326.083 142.557 C 326.229 142.557,326.272 142.163,326.180 141.681 C 326.024 140.862,325.394 140.419,325.394 141.127 M251.138 143.121 C 251.138 143.670,256.336 148.862,256.886 148.862 C 257.512 148.862,256.891 148.133,255.395 147.112 C 254.462 146.475,253.240 145.272,252.681 144.438 C 251.766 143.074,251.138 142.539,251.138 143.121 M360.946 143.257 C 361.065 143.450,361.033 143.608,360.876 143.608 C 360.718 143.608,360.396 143.917,360.159 144.295 C 359.799 144.873,359.815 144.950,360.260 144.779 C 361.123 144.448,361.815 142.907,361.100 142.907 C 360.896 142.907,360.827 143.065,360.946 143.257 M284.056 145.543 C 283.812 145.836,283.710 146.174,283.830 146.293 C 284.084 146.547,285.114 145.764,285.114 145.316 C 285.114 144.834,284.543 144.956,284.056 145.543 M357.317 147.122 C 356.243 148.017,356.823 148.006,357.968 147.110 C 358.450 146.734,358.687 146.427,358.494 146.429 C 358.301 146.431,357.772 146.743,357.317 147.122 M330.133 147.537 C 330.512 148.061,330.954 148.494,331.115 148.500 C 331.645 148.520,331.150 147.705,330.289 147.140 L 329.442 146.585 330.133 147.537 M281.874 147.489 C 281.537 147.685,281.261 147.995,281.261 148.179 C 281.261 148.741,281.770 148.548,282.230 147.811 C 282.728 147.014,282.713 147.000,281.874 147.489 M355.517 148.511 C 355.239 148.683,355.128 148.940,355.270 149.082 C 355.412 149.224,355.712 149.156,355.937 148.932 C 356.466 148.402,356.171 148.107,355.517 148.511 M279.705 149.048 C 279.331 149.331,279.183 149.562,279.376 149.562 C 279.568 149.562,280.032 149.331,280.406 149.048 C 280.780 148.765,280.928 148.534,280.736 148.534 C 280.543 148.534,280.079 148.765,279.705 149.048 M332.204 149.048 C 332.577 149.331,333.041 149.562,333.234 149.562 C 333.426 149.562,333.278 149.331,332.904 149.048 C 332.530 148.765,332.067 148.534,331.874 148.534 C 331.681 148.534,331.830 148.765,332.204 149.048 M62.347 149.825 C 62.347 149.969,76.532 150.088,93.870 150.088 C 111.208 150.088,125.394 149.969,125.394 149.825 C 125.394 149.680,111.208 149.562,93.870 149.562 C 76.532 149.562,62.347 149.680,62.347 149.825 M137.303 149.825 C 137.303 149.969,145.775 150.088,156.130 150.088 L 174.956 150.088 175.052 156.655 C 175.109 160.636,175.282 163.222,175.489 163.222 C 175.701 163.222,175.832 160.609,175.832 156.392 L 175.832 149.562 156.567 149.562 C 145.972 149.562,137.303 149.680,137.303 149.825 M237.653 187.566 C 237.653 201.532,237.771 212.960,237.916 212.960 C 238.060 212.960,238.179 201.532,238.179 187.566 C 238.179 173.599,238.060 162.172,237.916 162.172 C 237.771 162.172,237.653 173.599,237.653 187.566 M249.903 187.566 C 249.904 201.629,249.947 207.331,250.000 200.237 C 250.053 193.143,250.053 181.637,250.000 174.668 C 249.947 167.699,249.903 173.503,249.903 187.566 M311.384 162.522 C 311.384 162.968,312.795 162.968,313.485 162.522 C 313.876 162.269,313.674 162.181,312.697 162.177 C 311.975 162.174,311.384 162.329,311.384 162.522 M316.988 162.522 C 316.988 162.726,318.155 162.872,319.790 162.872 C 321.424 162.872,322.592 162.726,322.592 162.522 C 322.592 162.318,321.424 162.172,319.790 162.172 C 318.155 162.172,316.988 162.318,316.988 162.522 M349.642 187.653 C 349.686 201.668,349.764 209.982,349.816 206.130 C 350.056 188.258,350.061 162.171,349.825 162.172 C 349.680 162.172,349.598 173.638,349.642 187.653 M326.970 162.872 C 327.089 163.065,327.414 163.222,327.691 163.222 C 327.969 163.222,328.196 163.065,328.196 162.872 C 328.196 162.680,327.872 162.522,327.475 162.522 C 327.078 162.522,326.851 162.680,326.970 162.872 M307.412 163.789 C 306.865 164.086,306.493 164.403,306.585 164.495 C 306.676 164.586,307.281 164.338,307.929 163.943 C 309.293 163.112,308.886 162.990,307.412 163.789 M330.648 164.189 C 330.648 164.335,330.963 164.652,331.349 164.892 C 332.115 165.371,332.298 165.013,331.629 164.343 C 331.154 163.869,330.648 163.789,330.648 164.189 M303.590 166.776 C 302.675 167.728,301.926 168.671,301.926 168.873 C 301.926 169.074,302.793 168.351,303.853 167.266 C 304.912 166.181,305.779 165.221,305.779 165.133 C 305.779 164.696,305.100 165.206,303.590 166.776 M334.085 167.283 C 336.128 169.607,336.242 169.771,335.998 170.015 C 335.881 170.132,335.969 170.228,336.194 170.228 C 336.773 170.228,336.701 169.754,335.989 168.887 C 335.652 168.476,335.095 167.745,334.752 167.263 C 334.408 166.781,333.778 166.202,333.351 165.976 C 332.835 165.703,333.081 166.141,334.085 167.283 M300.525 170.228 C 300.319 170.613,300.282 170.928,300.443 170.928 C 300.815 170.928,301.576 170.176,301.576 169.807 C 301.576 169.264,300.896 169.536,300.525 170.228 M299.891 181.454 L 299.958 186.165 300.156 181.786 C 300.265 179.378,300.235 177.258,300.090 177.075 C 299.944 176.892,299.855 178.863,299.891 181.454 M337.799 187.566 C 337.800 191.226,337.851 192.676,337.915 190.787 C 337.978 188.899,337.977 185.904,337.914 184.132 C 337.851 182.360,337.799 183.905,337.799 187.566 M299.920 198.599 C 299.920 199.466,299.989 199.820,300.072 199.387 C 300.156 198.954,300.156 198.244,300.072 197.811 C 299.989 197.377,299.920 197.732,299.920 198.599 M300.876 205.093 C 300.876 205.198,301.203 205.631,301.604 206.057 L 302.332 206.830 301.898 205.867 C 301.520 205.030,300.876 204.542,300.876 205.093 M335.764 205.809 C 335.633 206.150,335.711 206.310,335.967 206.225 C 336.491 206.050,336.779 205.254,336.319 205.254 C 336.131 205.254,335.881 205.504,335.764 205.809 M333.450 208.636 C 332.391 209.690,330.972 210.851,330.298 211.215 C 329.623 211.580,329.229 211.884,329.422 211.892 C 330.348 211.930,334.459 208.659,335.235 207.268 C 335.715 206.406,335.611 206.485,333.450 208.636 M302.277 207.338 C 302.277 207.659,304.425 209.457,304.809 209.457 C 304.913 209.457,304.493 208.905,303.875 208.231 C 302.739 206.991,302.277 206.732,302.277 207.338 M305.429 210.324 C 305.429 210.415,305.941 210.738,306.567 211.042 L 307.706 211.593 306.879 210.875 C 306.104 210.203,305.429 209.946,305.429 210.324 M309.282 212.259 C 309.282 212.452,309.518 212.609,309.807 212.609 C 310.096 212.609,310.333 212.452,310.333 212.259 C 310.333 212.067,310.096 211.909,309.807 211.909 C 309.518 211.909,309.282 212.067,309.282 212.259 M327.496 212.259 C 327.496 212.452,327.811 212.609,328.196 212.609 C 328.581 212.609,328.897 212.452,328.897 212.259 C 328.897 212.067,328.581 211.909,328.196 211.909 C 327.811 211.909,327.496 212.067,327.496 212.259 M112.084 231.524 L 112.084 238.179 143.958 238.179 L 175.832 238.179 175.832 231.524 C 175.832 227.320,175.703 224.869,175.482 224.869 C 175.261 224.869,175.131 227.263,175.131 231.350 L 175.131 237.832 143.870 237.743 L 112.609 237.653 112.609 231.261 C 112.609 227.745,112.491 224.868,112.347 224.868 C 112.202 224.869,112.084 227.863,112.084 231.524 M62.347 237.916 C 62.347 238.060,70.937 238.179,81.436 238.179 C 91.935 238.179,100.525 238.060,100.525 237.916 C 100.525 237.771,91.935 237.653,81.436 237.653 C 70.937 237.653,62.347 237.771,62.347 237.916 M84.353 250.000 C 96.553 250.051,116.413 250.051,128.486 250.000 C 140.560 249.949,130.578 249.907,106.305 249.907 C 82.032 249.907,72.153 249.949,84.353 250.000 M399.762 271.454 C 399.762 272.706,399.825 273.218,399.903 272.592 C 399.981 271.966,399.981 270.941,399.903 270.315 C 399.825 269.689,399.762 270.201,399.762 271.454 M62.347 274.869 C 62.347 275.013,76.532 275.131,93.870 275.131 C 111.208 275.131,125.394 275.013,125.394 274.869 C 125.394 274.724,111.208 274.606,93.870 274.606 C 76.532 274.606,62.347 274.724,62.347 274.869 M156.130 274.869 L 175.131 274.962 175.131 281.439 C 175.131 285.523,175.261 287.916,175.482 287.916 C 176.136 287.916,175.936 275.071,175.278 274.819 C 174.973 274.702,166.265 274.644,155.926 274.690 L 137.128 274.775 156.130 274.869 M224.869 274.869 C 224.869 275.106,280.299 275.105,358.319 274.866 C 374.405 274.817,350.959 274.739,306.217 274.691 C 261.475 274.644,224.869 274.724,224.869 274.869 M397.184 281.988 C 396.828 282.653,396.856 282.682,397.522 282.326 C 397.922 282.112,398.249 281.785,398.249 281.599 C 398.249 280.998,397.584 281.241,397.184 281.988 M393.433 285.700 C 392.635 286.256,392.386 286.865,392.954 286.865 C 393.125 286.865,393.523 286.471,393.838 285.989 C 394.502 284.977,394.486 284.966,393.433 285.700 M318.301 287.828 C 323.165 287.883,331.125 287.883,335.989 287.828 C 340.854 287.773,336.874 287.728,327.145 287.728 C 317.417 287.728,313.437 287.773,318.301 287.828 M237.927 288.174 C 238.847 288.246,240.266 288.245,241.079 288.172 C 241.892 288.098,241.138 288.039,239.405 288.040 C 237.671 288.041,237.006 288.101,237.927 288.174 M269.979 288.176 C 271.190 288.244,273.082 288.244,274.182 288.174 C 275.282 288.105,274.291 288.049,271.979 288.050 C 269.667 288.050,268.767 288.107,269.979 288.176 M246.235 291.944 C 246.235 292.233,246.392 292.469,246.585 292.469 C 246.778 292.469,246.935 292.233,246.935 291.944 C 246.935 291.655,246.778 291.419,246.585 291.419 C 246.392 291.419,246.235 291.655,246.235 291.944 M246.585 293.345 C 246.585 293.634,246.743 293.870,246.935 293.870 C 247.128 293.870,247.285 293.634,247.285 293.345 C 247.285 293.056,247.128 292.820,246.935 292.820 C 246.743 292.820,246.585 293.056,246.585 293.345 M263.748 305.254 C 263.748 305.543,263.905 305.779,264.098 305.779 C 264.291 305.779,264.448 305.543,264.448 305.254 C 264.448 304.965,264.291 304.729,264.098 304.729 C 263.905 304.729,263.748 304.965,263.748 305.254 M251.138 308.406 C 251.138 308.695,251.296 308.932,251.489 308.932 C 251.681 308.932,251.839 308.695,251.839 308.406 C 251.839 308.117,251.681 307.881,251.489 307.881 C 251.296 307.881,251.138 308.117,251.138 308.406 M269.002 323.117 C 269.002 323.406,269.159 323.643,269.352 323.643 C 269.545 323.643,269.702 323.406,269.702 323.117 C 269.702 322.828,269.545 322.592,269.352 322.592 C 269.159 322.592,269.002 322.828,269.002 323.117 M247.986 337.303 C 247.986 337.722,251.773 337.735,253.765 337.323 C 254.882 337.092,254.438 337.025,251.576 336.993 C 249.389 336.968,247.986 337.090,247.986 337.303 M280.911 337.303 C 282.180 337.709,283.987 337.709,284.238 337.303 C 284.375 337.082,283.637 336.966,282.245 336.988 C 280.607 337.014,280.262 337.095,280.911 337.303 " stroke="none" fill="#cfcfcf" fill-rule="evenodd"></path><path id="path3" d="M57.881 0.262 C 60.530 0.321,64.864 0.321,67.513 0.262 C 70.162 0.202,67.995 0.154,62.697 0.154 C 57.399 0.154,55.232 0.202,57.881 0.262 M332.837 0.262 C 335.486 0.321,339.820 0.321,342.469 0.262 C 345.118 0.202,342.951 0.154,337.653 0.154 C 332.356 0.154,330.188 0.202,332.837 0.262 M16.550 0.592 C 16.887 0.680,17.439 0.680,17.776 0.592 C 18.113 0.504,17.837 0.432,17.163 0.432 C 16.489 0.432,16.213 0.504,16.550 0.592 M382.574 0.592 C 382.912 0.680,383.463 0.680,383.800 0.592 C 384.137 0.504,383.862 0.432,383.187 0.432 C 382.513 0.432,382.237 0.504,382.574 0.592 M4.885 3.765 L 3.678 5.079 4.991 3.872 C 6.214 2.748,6.466 2.452,6.198 2.452 C 6.140 2.452,5.549 3.043,4.885 3.765 M397.867 6.596 C 398.056 6.949,398.495 7.459,398.843 7.729 C 399.448 8.198,399.449 8.188,398.862 7.497 C 398.525 7.100,398.249 6.590,398.249 6.365 C 398.249 6.139,398.086 5.954,397.886 5.954 C 397.643 5.954,397.637 6.166,397.867 6.596 M387.040 125.219 C 387.040 199.825,387.158 237.478,387.391 237.478 C 387.623 237.478,387.741 199.825,387.741 125.219 C 387.741 50.613,387.623 12.960,387.391 12.960 C 387.158 12.960,387.040 50.613,387.040 125.219 M399.813 48.336 C 399.813 59.028,399.858 63.402,399.912 58.056 C 399.967 52.710,399.967 43.962,399.912 38.616 C 399.858 33.271,399.813 37.644,399.813 48.336 M243.695 37.725 C 244.129 37.809,244.838 37.809,245.271 37.725 C 245.705 37.642,245.350 37.574,244.483 37.574 C 243.616 37.574,243.262 37.642,243.695 37.725 M343.700 37.729 C 344.233 37.810,345.021 37.808,345.451 37.725 C 345.882 37.642,345.447 37.576,344.483 37.578 C 343.520 37.581,343.168 37.649,343.700 37.729 M356.217 39.487 C 356.217 39.785,357.168 40.724,358.983 42.217 L 359.822 42.907 359.408 42.119 C 359.181 41.686,358.778 41.331,358.513 41.331 C 358.248 41.331,357.623 40.846,357.124 40.253 C 356.625 39.661,356.217 39.316,356.217 39.487 M258.646 41.982 C 259.404 42.773,260.101 43.343,260.195 43.250 C 260.424 43.021,258.843 41.356,257.968 40.906 C 257.583 40.707,257.888 41.192,258.646 41.982 M237.636 62.697 C 237.636 69.536,237.683 72.334,237.740 68.914 C 237.798 65.495,237.798 59.899,237.740 56.480 C 237.683 53.060,237.636 55.858,237.636 62.697 M350.070 62.697 C 350.070 69.536,350.117 72.334,350.175 68.914 C 350.232 65.495,350.232 59.899,350.175 56.480 C 350.117 53.060,350.070 55.858,350.070 62.697 M262.442 53.590 C 262.442 54.457,262.510 54.812,262.594 54.378 C 262.677 53.945,262.677 53.236,262.594 52.802 C 262.510 52.369,262.442 52.723,262.442 53.590 M262.839 62.522 C 262.839 65.604,262.893 66.818,262.958 65.220 C 263.023 63.621,263.023 61.099,262.957 59.616 C 262.892 58.132,262.838 59.440,262.839 62.522 M362.691 61.055 C 362.561 62.270,362.610 63.965,362.801 64.820 C 363.109 66.202,363.152 65.956,363.185 62.609 C 363.227 58.364,363.042 57.780,362.691 61.055 M325.186 66.725 C 325.186 69.807,325.240 71.021,325.305 69.423 C 325.370 67.824,325.369 65.303,325.304 63.819 C 325.238 62.335,325.185 63.643,325.186 66.725 M262.435 71.278 C 262.439 72.049,262.511 72.323,262.594 71.887 C 262.678 71.452,262.675 70.821,262.587 70.486 C 262.500 70.151,262.431 70.508,262.435 71.278 M259.370 82.662 C 259.021 83.047,258.912 83.363,259.128 83.363 C 259.344 83.363,259.689 83.047,259.895 82.662 C 260.101 82.277,260.210 81.961,260.137 81.961 C 260.063 81.961,259.718 82.277,259.370 82.662 M327.496 82.024 C 327.496 82.126,327.890 82.635,328.371 83.154 C 328.853 83.674,329.247 83.961,329.247 83.792 C 329.247 83.623,328.853 83.114,328.371 82.662 C 327.890 82.210,327.496 81.923,327.496 82.024 M341.243 100.076 C 341.773 100.156,342.640 100.156,343.170 100.076 C 343.700 99.995,343.266 99.930,342.207 99.930 C 341.147 99.930,340.714 99.995,341.243 100.076 M225.035 125.219 C 225.035 139.089,225.078 144.713,225.131 137.715 C 225.184 130.718,225.184 119.369,225.131 112.496 C 225.078 105.623,225.035 111.349,225.035 125.219 M262.960 100.422 C 263.393 100.506,264.102 100.506,264.536 100.422 C 264.969 100.339,264.615 100.271,263.748 100.271 C 262.881 100.271,262.526 100.339,262.960 100.422 M271.196 100.426 C 271.728 100.507,272.516 100.505,272.947 100.422 C 273.378 100.339,272.942 100.273,271.979 100.275 C 271.016 100.278,270.663 100.346,271.196 100.426 M345.972 100.422 C 346.405 100.506,347.115 100.506,347.548 100.422 C 347.982 100.339,347.627 100.271,346.760 100.271 C 345.893 100.271,345.539 100.339,345.972 100.422 M237.644 125.219 C 237.644 138.897,237.687 144.543,237.741 137.767 C 237.794 130.990,237.794 119.799,237.741 112.898 C 237.688 105.997,237.644 111.541,237.644 125.219 M262.855 125.044 C 262.855 131.883,262.902 134.680,262.959 131.261 C 263.017 127.842,263.017 122.246,262.959 118.827 C 262.902 115.407,262.855 118.205,262.855 125.044 M350.070 125.044 C 350.070 131.883,350.117 134.680,350.175 131.261 C 350.232 127.842,350.232 122.246,350.175 118.827 C 350.117 115.407,350.070 118.205,350.070 125.044 M287.654 117.513 C 287.658 118.284,287.730 118.558,287.813 118.122 C 287.897 117.686,287.894 117.056,287.806 116.721 C 287.719 116.386,287.650 116.743,287.654 117.513 M362.688 123.420 C 362.559 124.453,362.608 126.147,362.796 127.185 C 363.121 128.973,363.141 128.875,363.181 125.306 C 363.226 121.181,363.051 120.511,362.688 123.420 M325.185 129.247 C 325.185 132.233,325.238 133.454,325.304 131.961 C 325.370 130.468,325.370 128.025,325.304 126.532 C 325.238 125.039,325.185 126.261,325.185 129.247 M37.478 124.956 C 37.478 125.195,51.356 125.191,68.476 124.947 C 72.137 124.895,66.659 124.817,56.305 124.773 C 45.950 124.729,37.478 124.812,37.478 124.956 M87.795 124.956 C 87.706 125.101,98.887 125.219,112.643 125.219 C 126.399 125.219,137.653 125.101,137.653 124.956 C 137.653 124.613,88.007 124.613,87.795 124.956 M75.101 131.524 C 75.101 134.991,75.154 136.362,75.217 134.571 C 75.281 132.779,75.281 129.942,75.217 128.266 C 75.153 126.590,75.101 128.056,75.101 131.524 M287.654 132.574 C 287.658 133.345,287.730 133.619,287.813 133.183 C 287.897 132.748,287.894 132.117,287.806 131.782 C 287.719 131.447,287.650 131.804,287.654 132.574 M253.441 145.447 C 253.539 145.687,254.047 146.186,254.568 146.554 C 255.515 147.223,255.515 147.222,254.488 146.116 C 253.364 144.907,253.169 144.782,253.441 145.447 M358.844 145.709 C 358.495 146.095,358.387 146.410,358.602 146.410 C 358.818 146.410,359.163 146.095,359.370 145.709 C 359.576 145.324,359.685 145.009,359.611 145.009 C 359.538 145.009,359.193 145.324,358.844 145.709 M78.371 150.175 C 86.896 150.227,100.845 150.227,109.370 150.175 C 117.894 150.123,110.919 150.080,93.870 150.080 C 76.821 150.080,69.847 150.123,78.371 150.175 M147.223 150.175 C 152.389 150.230,160.743 150.229,165.786 150.175 C 170.830 150.120,166.602 150.075,156.392 150.076 C 146.182 150.076,142.056 150.120,147.223 150.175 M262.611 180.681 C 262.659 190.825,262.742 202.277,262.793 206.130 C 262.845 209.982,262.921 201.865,262.962 188.091 C 263.003 174.317,262.921 162.865,262.779 162.643 C 262.638 162.420,262.562 170.537,262.611 180.681 M313.485 162.522 C 313.112 162.763,313.544 162.863,314.974 162.867 C 316.086 162.870,316.988 162.715,316.988 162.522 C 316.988 162.074,314.179 162.074,313.485 162.522 M63.047 162.872 C 63.047 163.103,73.555 163.222,93.870 163.222 C 114.186 163.222,124.694 163.103,124.694 162.872 C 124.694 162.641,114.186 162.522,93.870 162.522 C 73.555 162.522,63.047 162.641,63.047 162.872 M138.004 162.872 C 138.004 163.101,144.425 163.222,156.567 163.222 C 168.710 163.222,175.131 163.101,175.131 162.872 C 175.131 162.643,168.710 162.522,156.567 162.522 C 144.425 162.522,138.004 162.643,138.004 162.872 M225.035 187.916 C 225.035 201.786,225.078 207.410,225.131 200.412 C 225.184 193.415,225.184 182.066,225.131 175.193 C 225.078 168.320,225.035 174.046,225.035 187.916 M237.644 187.566 C 237.644 201.243,237.687 206.890,237.741 200.113 C 237.794 193.337,237.794 182.146,237.741 175.245 C 237.688 168.343,237.644 173.888,237.644 187.566 M350.078 187.916 C 350.079 201.786,350.122 207.410,350.175 200.412 C 350.228 193.415,350.228 182.066,350.175 175.193 C 350.122 168.320,350.078 174.046,350.078 187.916 M362.522 187.545 C 362.522 203.616,362.644 212.293,362.872 212.434 C 363.104 212.578,363.222 204.265,363.222 187.761 C 363.222 171.402,363.102 162.872,362.872 162.872 C 362.642 162.872,362.522 171.330,362.522 187.545 M332.049 165.193 C 332.049 165.377,332.798 166.231,333.713 167.090 L 335.377 168.651 333.800 166.907 C 332.933 165.947,332.185 165.093,332.137 165.009 C 332.088 164.926,332.049 165.008,332.049 165.193 M300.301 181.086 C 300.301 182.916,300.360 183.665,300.433 182.750 C 300.505 181.835,300.505 180.337,300.433 179.422 C 300.360 178.507,300.301 179.256,300.301 181.086 M299.967 191.594 C 299.967 194.772,300.021 196.073,300.085 194.483 C 300.150 192.894,300.150 190.293,300.085 188.704 C 300.021 187.115,299.967 188.415,299.967 191.594 M62.843 206.480 C 62.843 210.140,62.895 211.590,62.958 209.702 C 63.021 207.813,63.021 204.819,62.958 203.047 C 62.894 201.275,62.843 202.820,62.843 206.480 M305.079 209.767 C 305.079 209.937,305.403 210.161,305.799 210.264 C 306.391 210.419,306.446 210.363,306.107 209.955 C 305.644 209.398,305.079 209.294,305.079 209.767 M100.319 231.524 C 100.319 234.895,100.372 236.274,100.436 234.588 C 100.500 232.903,100.500 230.144,100.436 228.459 C 100.372 226.773,100.319 228.152,100.319 231.524 M112.597 231.699 L 112.609 237.653 143.783 237.656 L 174.956 237.659 143.879 237.567 L 112.801 237.474 112.693 231.609 L 112.585 225.744 112.597 231.699 M72.266 237.741 C 77.433 237.795,85.787 237.795,90.830 237.741 C 95.874 237.686,91.646 237.641,81.436 237.641 C 71.226 237.641,67.100 237.686,72.266 237.741 M225.015 243.958 C 225.015 247.618,225.067 249.068,225.130 247.180 C 225.193 245.291,225.193 242.297,225.129 240.525 C 225.066 238.753,225.014 240.298,225.015 243.958 M387.040 262.501 C 387.040 270.166,387.168 274.644,387.391 274.781 C 387.622 274.924,387.741 270.815,387.741 262.718 C 387.741 254.765,387.617 250.438,387.391 250.438 C 387.164 250.438,387.040 254.692,387.040 262.501 M62.996 262.786 C 63.141 262.931,82.718 263.010,106.499 262.961 L 149.737 262.872 106.235 262.697 C 82.308 262.601,62.851 262.641,62.996 262.786 M399.762 267.250 C 399.762 268.503,399.825 269.015,399.903 268.389 C 399.981 267.763,399.981 266.738,399.903 266.112 C 399.825 265.486,399.762 265.998,399.762 267.250 M78.196 275.219 C 86.817 275.271,100.924 275.271,109.545 275.219 C 118.165 275.167,111.112 275.124,93.870 275.124 C 76.629 275.124,69.575 275.167,78.196 275.219 M146.673 275.219 C 151.922 275.273,160.512 275.273,165.762 275.219 C 171.011 275.164,166.716 275.120,156.217 275.120 C 145.718 275.120,141.423 275.164,146.673 275.219 M225.024 275.407 C 224.929 275.655,224.898 278.531,224.956 281.799 L 225.062 287.741 225.140 281.524 L 225.219 275.308 306.217 275.219 L 387.215 275.130 306.206 275.043 C 240.427 274.973,225.164 275.041,225.024 275.407 M300.980 287.827 C 302.676 287.891,305.355 287.891,306.935 287.826 C 308.515 287.761,307.128 287.709,303.853 287.709 C 300.578 287.709,299.285 287.762,300.980 287.827 M242.995 288.163 C 243.428 288.247,244.137 288.247,244.571 288.163 C 245.004 288.080,244.650 288.011,243.783 288.011 C 242.916 288.011,242.561 288.080,242.995 288.163 M265.236 288.167 C 265.766 288.247,266.633 288.247,267.163 288.167 C 267.693 288.087,267.259 288.021,266.200 288.021 C 265.140 288.021,264.707 288.087,265.236 288.167 M253.940 337.303 L 252.715 337.561 254.116 337.602 C 254.886 337.624,255.753 337.490,256.042 337.303 C 256.676 336.893,255.887 336.893,253.940 337.303 M278.634 337.303 C 279.019 337.469,279.886 337.599,280.560 337.594 C 281.675 337.584,281.707 337.558,280.911 337.303 C 279.640 336.896,277.687 336.896,278.634 337.303 M225.014 343.608 C 225.014 347.172,225.066 348.630,225.130 346.848 C 225.193 345.066,225.193 342.150,225.130 340.368 C 225.066 338.586,225.014 340.044,225.014 343.608 " stroke="none" fill="#848484" fill-rule="evenodd"></path><path id="path4" d="M75.763 0.262 C 77.845 0.324,81.155 0.323,83.119 0.261 C 85.083 0.199,83.380 0.148,79.335 0.148 C 75.289 0.149,73.682 0.200,75.763 0.262 M317.075 0.261 C 319.146 0.323,322.535 0.323,324.606 0.261 C 326.677 0.199,324.982 0.149,320.841 0.149 C 316.699 0.149,315.004 0.199,317.075 0.261 M225.300 47.636 C 225.300 48.310,225.372 48.586,225.460 48.249 C 225.548 47.912,225.548 47.360,225.460 47.023 C 225.372 46.686,225.300 46.961,225.300 47.636 M262.428 56.042 C 262.428 56.716,262.500 56.992,262.588 56.655 C 262.676 56.318,262.676 55.766,262.588 55.429 C 262.500 55.092,262.428 55.368,262.428 56.042 M399.804 77.583 C 399.805 83.170,399.853 85.406,399.912 82.553 C 399.971 79.700,399.971 75.129,399.912 72.395 C 399.852 69.662,399.804 71.996,399.804 77.583 M59.632 75.219 C 85.398 75.268,127.561 75.268,153.327 75.219 C 179.094 75.169,158.012 75.129,106.480 75.129 C 54.947 75.129,33.866 75.169,59.632 75.219 M266.472 100.432 C 267.295 100.506,268.556 100.505,269.274 100.430 C 269.991 100.354,269.317 100.294,267.776 100.295 C 266.235 100.296,265.648 100.358,266.472 100.432 M287.661 120.140 C 287.661 121.007,287.729 121.362,287.813 120.928 C 287.896 120.495,287.896 119.785,287.813 119.352 C 287.729 118.919,287.661 119.273,287.661 120.140 M47.023 125.306 C 52.176 125.361,60.609 125.361,65.762 125.306 C 70.915 125.252,66.699 125.207,56.392 125.207 C 46.086 125.207,41.870 125.252,47.023 125.306 M100.288 125.306 C 107.190 125.359,118.381 125.359,125.157 125.306 C 131.934 125.253,126.287 125.210,112.609 125.210 C 98.932 125.210,93.387 125.253,100.288 125.306 M287.661 129.947 C 287.661 130.814,287.729 131.169,287.813 130.736 C 287.896 130.302,287.896 129.593,287.813 129.159 C 287.729 128.726,287.661 129.081,287.661 129.947 M327.923 145.066 C 327.998 145.291,328.445 145.717,328.916 146.014 L 329.772 146.553 328.923 145.606 C 328.007 144.583,327.709 144.423,327.923 145.066 M62.491 156.217 C 62.491 159.588,62.543 160.968,62.608 159.282 C 62.672 157.596,62.672 154.838,62.608 153.152 C 62.543 151.467,62.491 152.846,62.491 156.217 M125.189 156.392 C 125.189 159.860,125.241 161.231,125.305 159.439 C 125.369 157.648,125.368 154.811,125.304 153.135 C 125.240 151.459,125.188 152.925,125.189 156.392 M62.492 181.086 C 62.492 184.650,62.544 186.108,62.608 184.326 C 62.671 182.544,62.671 179.628,62.608 177.846 C 62.544 176.064,62.492 177.522,62.492 181.086 M324.851 187.741 C 324.851 194.580,324.898 197.377,324.956 193.958 C 325.013 190.539,325.013 184.943,324.956 181.524 C 324.898 178.104,324.851 180.902,324.851 187.741 M300.280 185.989 C 300.280 187.049,300.346 187.482,300.426 186.953 C 300.506 186.423,300.506 185.556,300.426 185.026 C 300.346 184.496,300.280 184.930,300.280 185.989 M125.189 206.480 C 125.189 209.947,125.241 211.319,125.305 209.527 C 125.369 207.735,125.368 204.898,125.304 203.222 C 125.240 201.546,125.188 203.012,125.189 206.480 M69.527 225.122 C 86.669 225.366,100.094 225.370,99.946 225.131 C 99.857 224.987,91.478 224.904,81.328 224.948 C 71.177 224.992,65.867 225.070,69.527 225.122 M128.310 225.131 C 136.945 225.183,150.973 225.183,159.483 225.131 C 167.993 225.079,160.928 225.036,143.783 225.036 C 126.637 225.036,119.675 225.079,128.310 225.131 M62.491 231.524 C 62.491 234.895,62.543 236.274,62.608 234.588 C 62.672 232.903,62.672 230.144,62.608 228.459 C 62.543 226.773,62.491 228.152,62.491 231.524 M62.491 256.392 C 62.491 259.764,62.543 261.143,62.608 259.457 C 62.672 257.771,62.672 255.013,62.608 253.327 C 62.543 251.642,62.491 253.021,62.491 256.392 M399.738 263.923 C 399.742 264.694,399.814 264.968,399.897 264.532 C 399.981 264.096,399.978 263.466,399.890 263.131 C 399.803 262.796,399.734 263.152,399.738 263.923 M62.491 281.261 C 62.491 284.632,62.543 286.011,62.608 284.326 C 62.672 282.640,62.672 279.882,62.608 278.196 C 62.543 276.511,62.491 277.890,62.491 281.261 M125.188 281.261 C 125.188 284.632,125.240 286.011,125.305 284.326 C 125.369 282.640,125.369 279.882,125.305 278.196 C 125.240 276.511,125.188 277.890,125.188 281.261 M78.371 287.828 C 86.896 287.880,100.845 287.880,109.370 287.828 C 117.894 287.776,110.919 287.733,93.870 287.733 C 76.821 287.733,69.847 287.776,78.371 287.828 M147.198 287.828 C 152.351 287.883,160.784 287.883,165.937 287.828 C 171.090 287.774,166.874 287.729,156.567 287.729 C 146.261 287.729,142.045 287.774,147.198 287.828 M295.359 287.817 C 295.889 287.897,296.756 287.897,297.285 287.817 C 297.815 287.736,297.382 287.671,296.322 287.671 C 295.263 287.671,294.829 287.736,295.359 287.817 M125.188 306.480 C 125.188 309.851,125.240 311.230,125.305 309.545 C 125.369 307.859,125.369 305.101,125.305 303.415 C 125.240 301.729,125.188 303.109,125.188 306.480 M277.408 337.303 C 277.697 337.490,278.249 337.634,278.634 337.623 L 279.335 337.604 278.634 337.303 C 277.587 336.853,276.712 336.853,277.408 337.303 " stroke="none" fill="#7c7c7c" fill-rule="evenodd"></path></g></svg>